<svg width="400" height="200" viewBox="0 0 400 200" fill="none" xmlns="http://www.w3.org/2000/svg">
<path d="M230.007 105.998H216.435C212.231 105.998 209.462 111.362 211.255 116.023L237.899 185.073C239.778 189.945 245.259 190.508 247.784 186.093L345.362 14.6814C348.016 10.0206 345.29 3.63623 340.656 3.63623H327.399C325.534 3.63623 323.797 4.74427 322.721 6.60859L245.532 140.189L235.287 110.307C234.398 107.704 232.317 105.998 230.007 105.998Z" fill="url(#paint0_linear_371_2443)"/>
<path d="M6.80509 175.269C4.97073 175.217 3.51992 173.84 2.46933 171.156C1.41874 168.471 0.718351 165.167 0.384831 161.26C0.0513108 157.353 -0.0654213 153.481 0.0346348 149.66C0.184719 144.187 0.501563 138.835 1.00184 133.62C1.50212 128.405 2.0024 122.158 2.51936 114.861L11.3576 0L22.6473 0.326994C25.4489 0.413045 27.4 1.75544 28.4839 4.35419C29.5678 6.97014 30.0681 10.4982 29.9347 14.9901C29.8347 18.9657 29.6512 22.7519 29.3844 26.3144C29.1343 29.8769 28.8007 34.059 28.3838 38.8607C27.9669 43.6796 27.4667 49.9613 26.8663 57.7575L17.7112 175.579L6.78842 175.269H6.80509Z" fill="white"/>
<path d="M41.6758 92.5567C40.2417 92.5567 39.2411 91.9027 38.6741 90.5775C38.1071 89.2523 37.8403 87.4797 37.8403 85.2423C37.8403 83.5902 37.9571 81.7315 38.2072 79.6662L45.8782 7.67587C48.9132 7.26282 52.1817 6.8842 55.667 6.5572C59.1523 6.23021 63.0878 6.05811 67.4903 6.05811C75.7282 6.05811 82.2319 6.8842 87.0012 8.53638C91.7539 10.1886 95.1724 12.4603 97.2069 15.3516C99.2414 18.2429 100.275 21.5473 100.275 25.2647C100.275 29.8082 98.9579 33.8698 96.3064 37.4668C93.6549 41.0637 90.2197 44.0066 85.984 46.33L82.2652 48.4297C80.0973 49.4967 78.1796 50.3916 76.4953 51.0973C74.811 51.8029 73.3769 52.1471 72.1762 52.1471C69.9416 52.1471 67.9906 51.5103 66.3563 50.2195C64.7221 48.946 63.8883 47.6724 63.8883 46.4333C63.8883 45.8654 64.0717 45.4179 64.4219 45.1253C64.7888 44.8327 65.289 44.609 65.9227 44.4369C68.4074 43.6969 70.8088 42.5954 73.1268 41.1497C75.4447 39.7041 77.3458 37.811 78.83 35.4532C80.3141 33.0954 81.0479 30.1868 81.0479 26.7104C81.0479 22.5799 79.447 19.7747 76.2452 18.2774C73.0434 16.7973 68.9578 16.04 64.005 16.04L58.3685 71.8012C58.2851 72.6273 58.2351 73.4361 58.1851 74.2106C58.1517 75.0023 58.1184 75.7939 58.1184 76.62C58.1184 77.5322 58.135 78.255 58.1851 78.7885C58.2184 79.322 58.2851 80.0449 58.3685 80.957C65.7393 80.957 71.5425 79.5458 75.7782 76.7405C80.0139 73.9352 82.1485 69.3917 82.1485 63.11C82.1485 59.6335 81.3314 56.7078 79.6804 54.3156C78.0462 51.9234 76.3786 50.0991 74.6943 48.8599L83.4659 44.0239C87.0679 45.0221 90.3364 46.5193 93.2547 48.5501C96.173 50.581 98.491 52.9904 100.225 55.7957C101.943 58.6009 102.81 61.6643 102.81 64.9687C102.81 70.2522 101.576 74.8818 99.0913 78.8401C96.6066 82.7985 92.7044 85.8963 87.3847 88.1337C82.0651 90.371 75.1612 91.4725 66.6731 91.4725C65.0722 91.4725 63.0545 91.5069 60.6031 91.5929C58.1684 91.679 55.667 91.7994 53.0989 91.9715C50.5308 92.1436 48.2128 92.2641 46.1283 92.3502C44.0438 92.4362 42.5596 92.4706 41.6925 92.4706L41.6758 92.5567Z" fill="white"/>
<path d="M127.541 92.5567C121.371 92.5567 116.318 90.5603 112.349 86.5503C108.38 82.5403 106.412 77.0331 106.412 70.0113C106.412 64.1426 107.296 58.773 109.047 53.9025C110.815 49.032 113.266 44.7811 116.435 41.1325C119.603 37.5012 123.238 34.6959 127.357 32.6995C131.476 30.7204 135.862 29.7222 140.498 29.7222C145.618 29.7222 149.937 30.9441 153.472 33.3707C156.991 35.8146 158.758 39.3427 158.758 43.9722C158.758 48.6018 157.141 52.3536 153.889 55.744C150.654 59.1344 146.151 62.043 140.381 64.4868C134.611 66.9307 127.941 68.9615 120.337 70.6137L118.769 61.9397C122.605 61.4406 126.157 60.5113 129.392 59.1516C132.627 57.792 135.295 55.985 137.38 53.7648C139.464 51.5275 140.581 48.9804 140.748 46.0891C140.915 44.1099 140.632 42.4405 139.914 41.0637C139.197 39.7041 138.113 39.0157 136.679 39.0157C134.912 39.0157 133.144 40.2204 131.343 42.6126C129.542 45.0048 128.041 48.1887 126.84 52.1471C125.64 56.1054 125.039 60.408 125.039 65.0375C125.039 69.2541 125.523 72.61 126.474 75.1399C127.441 77.6526 129.559 78.9262 132.844 78.9262C136.129 78.9262 139.314 78.2378 142.382 76.8782C145.468 75.5186 148.002 74.1762 150.003 72.851C150.637 72.4379 151.287 72.0421 151.921 71.6807C152.555 71.3021 153.122 71.13 153.605 71.13C154.172 71.13 154.606 71.3537 154.923 71.8184C155.24 72.2658 155.406 72.8338 155.406 73.4878C155.406 74.9678 154.806 76.7921 153.605 78.9434C152.405 81.0947 150.62 83.1943 148.269 85.2596C145.901 87.3248 143 89.063 139.564 90.4571C136.129 91.8683 132.127 92.5567 127.558 92.5567H127.541Z" fill="white"/>
<path d="M173.266 92.5565C170.381 92.5565 168.464 91.7993 167.496 90.2676C166.529 88.7359 166.096 86.4813 166.179 83.5212C166.262 80.7159 166.479 77.3599 166.846 73.4876C167.213 69.5981 167.63 65.7602 168.113 61.9567L172.316 29.3606C172.716 26.2283 172.633 23.5779 172.082 21.4267C171.515 19.2754 170.898 17.3651 170.215 15.6612C169.531 13.9746 169.197 12.3397 169.197 10.7735C169.197 9.5344 169.964 8.43295 171.482 7.48638C173 6.53982 174.867 5.76536 177.068 5.19743C179.27 4.62949 181.371 4.33691 183.372 4.33691C186.407 4.33691 188.592 5.28348 189.909 7.19381C191.226 9.10415 191.893 11.2382 191.893 13.6304C191.893 14.8696 191.81 16.8143 191.66 19.4475C191.493 22.0979 191.176 25.1097 190.693 28.5001L186.857 57.0002C186.057 62.9549 185.44 69.0129 184.99 75.2086C184.556 81.4043 184.122 87.1869 183.722 92.5565H173.283H173.266Z" fill="white"/>
<path d="M204.133 92.5569C202.616 92.5569 201.349 91.421 200.348 89.1493C199.347 86.8775 198.847 84.3304 198.847 81.5251C198.847 79.632 198.914 77.8421 199.031 76.1899C199.147 74.5378 199.364 72.3004 199.698 69.4952L204.017 29.7223H216.257C218.258 29.7223 219.659 30.6345 220.459 32.4416C221.26 34.2658 221.66 36.3311 221.66 38.6372C221.66 39.7903 221.577 41.0123 221.426 42.2858C221.26 43.5766 221.026 45.5213 220.709 48.1717L218.425 68.3765C218.025 72.4209 217.624 75.8974 217.224 78.7887C216.824 81.68 216.49 84.2271 216.207 86.4128C215.923 88.5985 215.673 90.6465 215.423 92.5397H204.133V92.5569ZM214.706 25.6435C211.904 25.6435 209.486 24.6453 207.435 22.6662C205.401 20.687 204.367 18.1227 204.367 14.9904C204.367 11.1869 205.551 8.24399 207.902 6.12713C210.27 4.02748 213.005 2.96045 216.124 2.96045C219.008 2.96045 221.426 3.82096 223.394 5.55919C225.362 7.29743 226.329 9.93059 226.329 13.4931C226.329 17.0556 225.162 19.8609 222.844 22.1671C220.526 24.4732 217.808 25.6435 214.673 25.6435H214.706Z" fill="white"/>
<path d="M247.141 92.5567C240.971 92.5567 235.918 90.5603 231.949 86.5503C227.98 82.5403 226.012 77.0331 226.012 70.0113C226.012 64.1426 226.896 58.773 228.647 53.9025C230.415 49.032 232.866 44.7811 236.034 41.1325C239.203 37.5012 242.838 34.6959 246.957 32.6995C251.076 30.7204 255.462 29.7222 260.098 29.7222C265.217 29.7222 269.537 30.9441 273.072 33.3707C276.591 35.8146 278.358 39.3427 278.358 43.9722C278.358 48.6018 276.741 52.3536 273.489 55.744C270.254 59.1344 265.751 62.043 259.981 64.4868C254.211 66.9307 247.541 68.9615 239.937 70.6137L238.369 61.9397C242.205 61.4406 245.757 60.5113 248.992 59.1516C252.227 57.792 254.895 55.985 256.98 53.7648C259.064 51.5275 260.181 48.9804 260.348 46.0891C260.515 44.1099 260.231 42.4405 259.514 41.0637C258.797 39.7041 257.713 39.0157 256.279 39.0157C254.511 39.0157 252.744 40.2204 250.943 42.6126C249.142 45.0048 247.641 48.1887 246.44 52.1471C245.24 56.1054 244.639 60.408 244.639 65.0375C244.639 69.2541 245.123 72.61 246.073 75.1399C247.041 77.6526 249.159 78.9262 252.444 78.9262C255.729 78.9262 258.914 78.2378 261.982 76.8782C265.067 75.5186 267.602 74.1762 269.603 72.851C270.237 72.4379 270.887 72.0421 271.521 71.6807C272.155 71.3021 272.722 71.13 273.205 71.13C273.772 71.13 274.206 71.3537 274.523 71.8184C274.84 72.2658 275.006 72.8338 275.006 73.4878C275.006 74.9678 274.406 76.7921 273.205 78.9434C272.005 81.0947 270.22 83.1943 267.869 85.2596C265.501 87.3248 262.599 89.063 259.164 90.4571C255.729 91.8683 251.727 92.5567 247.157 92.5567H247.141Z" fill="white"/>
<path d="M305.385 174.598C299.214 174.598 294.162 172.601 290.193 168.591C286.224 164.581 284.256 159.074 284.256 152.052C284.256 146.184 285.14 140.814 286.891 135.944C288.659 131.073 291.11 126.822 294.278 123.174C297.447 119.542 301.082 116.737 305.201 114.741C309.32 112.761 313.706 111.763 318.342 111.763C323.461 111.763 327.78 112.985 331.316 115.412C334.834 117.856 336.602 121.384 336.602 126.013C336.602 130.643 334.985 134.395 331.733 137.785C328.498 141.175 323.995 144.084 318.225 146.528C312.455 148.972 305.785 151.002 298.181 152.655L296.613 143.981C300.449 143.482 304 142.552 307.236 141.193C310.471 139.833 313.139 138.026 315.223 135.806C317.308 133.569 318.425 131.021 318.592 128.13C318.759 126.151 318.475 124.482 317.758 123.105C317.041 121.745 315.957 121.057 314.523 121.057C312.755 121.057 310.988 122.261 309.187 124.654C307.386 127.046 305.885 130.23 304.684 134.188C303.484 138.146 302.883 142.449 302.883 147.079C302.883 151.295 303.367 154.651 304.317 157.181C305.285 159.694 307.402 160.967 310.688 160.967C313.973 160.967 317.158 160.279 320.226 158.919C323.311 157.56 325.846 156.217 327.847 154.892C328.481 154.479 329.131 154.083 329.765 153.722C330.399 153.343 330.966 153.171 331.449 153.171C332.016 153.171 332.45 153.395 332.767 153.859C333.083 154.307 333.25 154.875 333.25 155.529C333.25 157.009 332.65 158.833 331.449 160.984C330.249 163.136 328.464 165.235 326.113 167.301C323.745 169.366 320.843 171.104 317.408 172.498C313.973 173.909 309.971 174.598 305.401 174.598H305.385Z" fill="white"/>
<path d="M58.4684 174.477C51.748 174.477 46.495 173.462 42.7429 171.448C38.9742 169.417 37.1064 166.423 37.1064 162.464C37.1064 159.745 37.4733 157.611 38.1904 156.079C38.9075 154.548 39.7579 153.79 40.7085 153.79C41.4255 153.79 42.1426 153.997 42.8763 154.41C43.6101 154.823 44.594 155.529 45.878 156.51C47.2455 157.508 48.8797 158.575 50.7974 159.728C52.7152 160.881 54.6996 161.879 56.7341 162.705C58.7686 163.531 60.6029 163.944 62.2038 163.944C63.8881 163.944 65.3223 163.531 66.5229 162.705C67.7236 161.879 68.3239 160.64 68.3239 158.988C68.3239 157.835 68.0071 156.802 67.3567 155.89C66.723 154.978 65.439 153.945 63.5212 152.792L54.3995 147.216C50.9642 145.065 48.2794 142.655 46.3616 139.971C44.4439 137.286 43.4767 134.136 43.4767 130.488C43.4767 124.877 45.4778 120.351 49.48 116.926C53.4823 113.501 59.6524 111.78 67.9737 111.78C73.0933 111.78 77.0622 112.279 79.8637 113.26C82.6653 114.259 84.0661 116.066 84.0661 118.716C84.0661 121.366 83.6492 123.673 82.7987 125.652C81.9649 127.631 80.8643 128.629 79.4969 128.629C79.0133 128.629 78.4963 128.509 77.9293 128.25C77.3623 128.01 76.812 127.751 76.245 127.51C75.3612 127.097 74.2106 126.443 72.7598 125.531C71.3256 124.619 69.8248 123.793 68.2572 123.053C66.6897 122.313 65.1888 121.934 63.7547 121.934C62.2372 121.934 61.0865 122.365 60.3361 123.242C59.569 124.103 59.2022 125.084 59.2022 126.151C59.2022 127.39 59.5357 128.457 60.2194 129.369C60.9031 130.281 62.3539 131.193 64.6052 132.088L72.643 135.427C77.0455 137.251 80.264 139.558 82.3151 142.363C84.3496 145.168 85.3835 148.524 85.3835 152.396C85.3835 157.112 84.1495 161.105 81.6647 164.409C79.18 167.714 75.8948 170.209 71.8259 171.913C67.7403 173.599 63.3045 174.46 58.5018 174.46L58.4684 174.477Z" fill="white"/>
<path d="M102.777 174.236C99.6582 174.236 96.94 173.307 94.6054 171.448C92.2874 169.59 91.1201 166.63 91.1201 162.585C91.1201 161.346 91.1368 160.193 91.1868 159.109C91.2202 158.042 91.3536 156.716 91.5537 155.15C91.7538 153.584 92.0206 151.433 92.3375 148.714L96.9067 111.781H107.713C109.08 111.781 110.381 112.589 111.615 114.19C112.849 115.808 113.483 117.77 113.483 120.076C113.483 121.814 113.366 124.086 113.116 126.891C112.882 129.696 112.515 132.794 112.032 136.185L110.464 146.958C110.147 149.264 109.897 151.106 109.747 152.465C109.58 153.825 109.514 155.081 109.514 156.252C109.514 157.078 109.614 157.835 109.814 158.541C110.014 159.246 110.481 159.591 111.198 159.591C112.165 159.591 113.416 158.764 114.983 157.112C116.551 155.46 118.185 153.274 119.903 150.538C121.621 147.819 123.238 144.859 124.772 141.675C126.29 138.491 127.541 135.376 128.491 132.312C129.458 129.266 129.925 126.581 129.925 124.258C129.925 122.365 129.708 120.764 129.258 119.491C128.825 118.217 128.641 117.15 128.725 116.324C128.725 115.584 129.358 114.913 130.642 114.345C131.926 113.777 133.46 113.295 135.261 112.916C137.063 112.538 138.797 112.262 140.481 112.056C142.165 111.849 143.399 111.746 144.2 111.746C145.884 111.746 147.218 112.572 148.219 114.224C149.219 115.877 149.553 118.234 149.236 121.281L143.599 173.823H133.761C132.727 173.823 131.76 173.393 130.876 172.515C129.992 171.655 129.275 170.588 128.708 169.349C128.141 168.11 127.874 166.905 127.874 165.752C127.874 163.859 128.191 161.793 128.841 159.556C129.475 157.319 130.342 154.479 131.426 151.003C132.51 147.526 133.761 143.069 135.211 137.613V139.713C132.093 148.146 128.775 154.875 125.239 159.918C121.721 164.96 118.069 168.591 114.316 170.829C110.548 173.066 106.712 174.168 102.793 174.168L102.777 174.236Z" fill="white"/>
<path d="M158.641 174.357C157.608 174.357 156.774 174.167 156.173 173.806C155.573 173.427 155.206 172.463 155.089 170.897C154.973 169.331 155.106 166.801 155.506 163.342L161.143 111.797H172.916C175.084 111.797 176.618 112.71 177.535 114.517C178.453 116.341 178.919 118.406 178.919 120.712C178.919 121.779 178.503 123.466 177.652 125.738C176.818 128.009 175.884 130.402 174.884 132.932C173.883 135.444 173.1 137.664 172.549 139.557L169.664 149.711L175.668 148.971L173.633 168.677C173.55 169.83 172.833 170.777 171.465 171.534C170.098 172.274 168.497 172.859 166.663 173.272C164.828 173.685 163.144 173.978 161.626 174.133C160.109 174.305 159.108 174.374 158.625 174.374L158.641 174.357ZM173.65 168.66L169.081 150.933C172.049 142.999 175.051 136.133 178.086 130.298C181.121 124.481 184.256 119.955 187.458 116.737C190.659 113.518 193.895 111.901 197.18 111.901C199.264 111.901 200.999 112.486 202.399 113.639C203.8 114.792 204.5 116.823 204.5 119.714C204.5 121.607 204.267 123.518 203.783 125.411C203.3 127.304 202.616 128.887 201.749 130.126C200.865 131.365 199.831 131.985 198.631 131.985C197.597 131.985 196.329 131.589 194.845 130.815C193.361 130.023 191.71 129.644 189.859 129.644C188.658 129.644 187.274 130.625 185.723 132.553C184.156 134.498 182.555 137.2 180.921 140.676C179.286 144.153 177.819 148.249 176.535 152.999C175.251 157.749 174.3 162.981 173.65 168.677V168.66Z" fill="white"/>
<path d="M356.201 92.5567C350.031 92.5567 344.978 90.5603 341.009 86.5503C337.041 82.5403 335.073 77.0331 335.073 70.0113C335.073 64.1426 335.957 58.773 337.708 53.9025C339.475 49.032 341.927 44.7811 345.095 41.1325C348.263 37.5012 351.899 34.6959 356.018 32.6995C360.137 30.7204 364.523 29.7222 369.159 29.7222C374.278 29.7222 378.597 30.9441 382.132 33.3707C385.651 35.8146 387.419 39.3427 387.419 43.9722C387.419 48.6018 385.801 52.3536 382.549 55.744C379.314 59.1344 374.812 62.043 369.042 64.4868C363.272 66.9307 356.601 68.9615 348.997 70.6137L347.43 61.9397C351.265 61.4406 354.817 60.5113 358.052 59.1517C361.287 57.792 363.956 55.985 366.04 53.7649C368.125 51.5275 369.242 48.9804 369.409 46.0891C369.575 44.1099 369.292 42.4405 368.575 41.0637C367.858 39.7041 366.774 39.0157 365.34 39.0157C363.572 39.0157 361.804 40.2204 360.003 42.6126C358.202 45.0048 356.702 48.1887 355.501 52.1471C354.3 56.1054 353.7 60.408 353.7 65.0376C353.7 69.2541 354.183 72.61 355.134 75.1399C356.101 77.6526 358.219 78.9262 361.504 78.9262C364.789 78.9262 367.975 78.2378 371.043 76.8782C374.128 75.5186 376.663 74.1762 378.664 72.851C379.298 72.438 379.948 72.0421 380.582 71.6807C381.215 71.3021 381.782 71.13 382.266 71.13C382.833 71.13 383.266 71.3537 383.583 71.8184C383.9 72.2658 384.067 72.8338 384.067 73.4878C384.067 74.9678 383.467 76.7921 382.266 78.9434C381.065 81.0947 379.281 83.1943 376.93 85.2596C374.562 87.3248 371.66 89.063 368.225 90.4571C364.789 91.8683 360.787 92.5567 356.218 92.5567H356.201Z" fill="white"/>
<path d="M359.498 200C354.529 200 350.61 199.26 347.725 197.763C344.84 196.265 342.805 194.252 341.605 191.687C340.404 189.123 339.804 186.197 339.804 182.893C339.804 181.241 340.121 179.984 340.771 179.107C341.405 178.246 342.005 177.799 342.572 177.799C343.206 177.799 343.773 178.074 344.256 178.608C344.74 179.141 345.457 179.744 346.424 180.398C347.942 181.396 349.743 182.463 351.827 183.616C353.912 184.769 356.113 185.767 358.431 186.593C360.749 187.419 362.95 187.832 365.035 187.832C366.235 187.832 367.553 187.333 369.003 186.352C370.454 185.371 371.938 183.375 373.506 180.398C375.073 177.42 376.608 172.963 378.125 167.008L385.212 138.749H385.813C383.011 146.855 379.809 153.515 376.207 158.764C372.605 164.013 368.737 167.869 364.618 170.347C360.499 172.825 356.313 174.064 352.077 174.064C348.709 174.064 346.241 173.118 344.64 171.207C343.039 169.314 342.238 166.664 342.238 163.273C342.238 161.621 342.338 159.797 342.539 157.818C342.739 155.839 343.072 152.741 343.556 148.524L347.992 111.729H358.798C360.165 111.729 361.466 112.538 362.7 114.138C363.934 115.756 364.568 117.718 364.568 120.024C364.568 121.177 364.501 122.588 364.384 124.241C364.267 125.893 364.101 127.734 363.901 129.748C363.7 131.779 363.434 133.896 363.117 136.133L361.549 146.906C361.232 149.213 360.982 151.054 360.832 152.414C360.665 153.773 360.599 155.03 360.599 156.2C360.599 157.026 360.699 157.783 360.899 158.489C361.099 159.195 361.566 159.539 362.283 159.539C363.25 159.539 364.484 158.713 366.002 157.06C367.519 155.408 369.12 153.257 370.804 150.624C372.489 147.973 374.073 145.134 375.54 142.07C377.025 139.007 378.242 136.012 379.209 133.087C380.176 130.161 380.643 127.648 380.643 125.583C380.643 124.172 380.61 122.674 380.527 121.057C380.443 119.439 380.41 118.234 380.41 117.408C380.41 116.341 381.21 115.377 382.811 114.551C384.412 113.725 386.38 113.037 388.698 112.503C391.016 111.97 393.217 111.694 395.301 111.694C396.986 111.694 398.236 112.52 399.087 114.173C399.921 115.825 400.188 118.183 399.871 121.229C399.787 122.64 399.637 124.413 399.387 126.564C399.154 128.715 398.87 130.987 398.553 133.379L394.468 168.815C393.834 174.512 392.35 179.348 390.032 183.306C387.714 187.264 384.896 190.466 381.56 192.909C378.242 195.353 374.657 197.126 370.821 198.245C366.986 199.363 363.217 199.914 359.531 199.914L359.498 200Z" fill="white"/>
<defs>
<linearGradient id="paint0_linear_371_2443" x1="210.71" y1="96.3773" x2="346.395" y2="96.3773" gradientUnits="userSpaceOnUse">
<stop stop-color="white"/>
<stop offset="1" stop-color="#E77853"/>
</linearGradient>
</defs>
</svg>
