<svg width="426" height="480" viewBox="0 0 426 480" fill="none" xmlns="http://www.w3.org/2000/svg">
<path d="M61.7077 211.282L188.559 391.907C222.639 440.434 289.606 452.146 338.133 418.066C386.661 383.985 398.372 317.018 364.292 268.491L237.441 87.8663C203.361 39.3389 136.394 27.6272 87.8665 61.7076C39.3391 95.7879 27.6274 162.755 61.7077 211.282Z" fill="url(#paint0_linear_905_3672)"/>
<path d="M61.7077 211.282L188.559 391.907C222.639 440.434 289.606 452.146 338.133 418.066C386.661 383.985 398.372 317.018 364.292 268.491L237.441 87.8663C203.361 39.3389 136.394 27.6272 87.8665 61.7076C39.3391 95.7879 27.6274 162.755 61.7077 211.282Z" fill="white" fill-opacity="0.2"/>
<defs>
<linearGradient id="paint0_linear_905_3672" x1="338.824" y1="417.587" x2="88.5572" y2="61.2286" gradientUnits="userSpaceOnUse">
<stop offset="0.9999" stop-color="#5184B1"/>
<stop offset="1" stop-color="#E77853"/>
</linearGradient>
</defs>
</svg>
