<svg width="269" height="34" viewBox="0 0 269 34" fill="none" xmlns="http://www.w3.org/2000/svg">
<path d="M1.34359 33.884C0.911594 33.884 0.599594 33.752 0.407594 33.488C0.215594 33.248 0.119594 32.936 0.119594 32.552C0.119594 32.192 0.167594 31.628 0.263594 30.86L2.85559 9.332C3.09559 7.388 3.68359 5.804 4.61959 4.58C5.55559 3.332 6.73159 2.42 8.14759 1.844C9.58759 1.244 11.1836 0.943999 12.9356 0.943999C14.9276 0.943999 16.5116 1.196 17.6876 1.7C18.8876 2.18 19.4876 3.044 19.4876 4.292C19.4876 5.036 19.2236 5.744 18.6956 6.416C18.1916 7.064 17.4476 7.388 16.4636 7.388C15.8636 7.388 15.3356 7.268 14.8796 7.028C14.4476 6.764 14.0276 6.464 13.6196 6.128C13.2356 5.792 12.8156 5.504 12.3596 5.264C11.9276 5 11.4236 4.868 10.8476 4.868C10.1756 4.868 9.68359 5.108 9.37159 5.588C9.05959 6.068 8.84359 6.884 8.72359 8.036L7.53559 18.512C7.36759 19.928 7.22359 21.368 7.10359 22.832C6.98359 24.272 6.86359 25.616 6.74359 26.864C6.67159 27.464 6.45559 28.16 6.09559 28.952C5.73559 29.744 5.27959 30.512 4.72759 31.256C4.19959 32.024 3.63559 32.648 3.03559 33.128C2.43559 33.632 1.87159 33.884 1.34359 33.884ZM13.0796 26.576C12.6236 26.576 12.2396 26.252 11.9276 25.604C11.6396 24.932 11.4956 24.188 11.4956 23.372C11.4956 22.892 11.5196 22.364 11.5676 21.788C11.6396 21.188 11.7116 20.552 11.7836 19.88C11.8556 19.208 11.9396 18.5 12.0356 17.756C12.1316 17.012 12.2396 16.016 12.3596 14.768C12.4316 14.096 12.4676 13.568 12.4676 13.184C12.4916 12.8 12.4436 12.536 12.3236 12.392C12.2036 12.224 11.9636 12.14 11.6036 12.14L15.5276 8.9C16.3196 8.9 16.9076 9.008 17.2916 9.224C17.6996 9.44 17.9756 9.752 18.1196 10.16C18.2636 10.544 18.3356 10.988 18.3356 11.492C18.3356 11.828 18.3116 12.188 18.2636 12.572C18.2396 12.932 18.1676 13.496 18.0476 14.264L17.3636 19.556C17.2196 20.732 17.0876 21.74 16.9676 22.58C16.8476 23.42 16.7516 24.164 16.6796 24.812C16.6076 25.436 16.5356 26.024 16.4636 26.576H13.0796ZM0.947594 12.14C0.779594 12.14 0.659594 12.08 0.587594 11.96C0.515594 11.84 0.503594 11.696 0.551594 11.528L1.16359 9.8C1.28359 9.464 1.45159 9.236 1.66759 9.116C1.90759 8.972 2.35159 8.9 2.99959 8.9H15.5276L14.4116 12.14H0.947594ZM23.5618 26.504C22.6978 26.504 22.1218 26.288 21.8338 25.856C21.5458 25.4 21.4138 24.74 21.4378 23.876C21.4618 23.06 21.5218 22.088 21.6178 20.96C21.7378 19.832 21.8698 18.716 22.0138 17.612L23.2738 8.144C23.3938 7.232 23.3698 6.464 23.2018 5.84C23.0338 5.216 22.8418 4.664 22.6258 4.184C22.4338 3.68 22.3378 3.2 22.3378 2.744C22.3378 2.384 22.5658 2.072 23.0218 1.808C23.4778 1.52 24.0298 1.292 24.6778 1.124C25.3498 0.955999 25.9858 0.872 26.5858 0.872C27.4978 0.872 28.1458 1.148 28.5298 1.7C28.9378 2.252 29.1418 2.876 29.1418 3.572C29.1418 3.932 29.1178 4.496 29.0698 5.264C29.0218 6.032 28.9258 6.908 28.7818 7.892L27.6298 16.172C27.3898 17.9 27.1978 19.664 27.0538 21.464C26.9338 23.264 26.8138 24.944 26.6938 26.504H23.5618ZM33.8626 26.504C32.9986 26.504 32.4226 26.288 32.1346 25.856C31.8466 25.4 31.7146 24.74 31.7386 23.876C31.7626 23.06 31.8226 22.088 31.9186 20.96C32.0386 19.832 32.1706 18.716 32.3146 17.612L33.5746 8.144C33.6946 7.232 33.6706 6.464 33.5026 5.84C33.3346 5.216 33.1426 4.664 32.9266 4.184C32.7346 3.68 32.6386 3.2 32.6386 2.744C32.6386 2.384 32.8666 2.072 33.3226 1.808C33.7786 1.52 34.3306 1.292 34.9786 1.124C35.6506 0.955999 36.2866 0.872 36.8866 0.872C37.7986 0.872 38.4466 1.148 38.8306 1.7C39.2386 2.252 39.4426 2.876 39.4426 3.572C39.4426 3.932 39.4186 4.496 39.3706 5.264C39.3226 6.032 39.2266 6.908 39.0826 7.892L37.9306 16.172C37.6906 17.9 37.4986 19.664 37.3546 21.464C37.2346 23.264 37.1146 24.944 36.9946 26.504H33.8626ZM55.7264 26.54C53.3984 26.54 51.6104 25.964 50.3624 24.812C49.1144 23.636 48.4904 21.932 48.4904 19.7C48.4904 18.068 48.7424 16.568 49.2464 15.2C49.7504 13.808 50.4584 12.596 51.3704 11.564C52.2824 10.532 53.3384 9.74 54.5384 9.188C55.7384 8.612 57.0224 8.324 58.3904 8.324C60.6704 8.324 62.4344 8.912 63.6824 10.088C64.9544 11.264 65.5904 12.956 65.5904 15.164C65.5904 16.796 65.3384 18.308 64.8344 19.7C64.3304 21.068 63.6224 22.268 62.7104 23.3C61.8224 24.332 60.7784 25.136 59.5784 25.712C58.4024 26.264 57.1184 26.54 55.7264 26.54ZM56.3024 23.84C56.9744 23.84 57.5864 23.492 58.1384 22.796C58.6904 22.1 59.1344 21.14 59.4704 19.916C59.8304 18.668 60.0104 17.216 60.0104 15.56C60.0104 14.072 59.7824 12.944 59.3264 12.176C58.8704 11.408 58.3184 11.024 57.6704 11.024C57.0224 11.024 56.4224 11.372 55.8704 12.068C55.3184 12.764 54.8744 13.736 54.5384 14.984C54.2264 16.208 54.0704 17.648 54.0704 19.304C54.0704 20.768 54.2744 21.896 54.6824 22.688C55.1144 23.456 55.6544 23.84 56.3024 23.84ZM71.192 26.468C70.256 26.468 69.44 26.204 68.744 25.676C68.048 25.124 67.7 24.26 67.7 23.084C67.7 22.724 67.7 22.388 67.7 22.076C67.724 21.764 67.76 21.38 67.808 20.924C67.88 20.468 67.964 19.844 68.06 19.052L69.428 8.324H72.668C73.076 8.324 73.46 8.564 73.82 9.044C74.204 9.5 74.396 10.064 74.396 10.736C74.396 11.24 74.36 11.9 74.288 12.716C74.216 13.532 74.108 14.432 73.964 15.416L73.496 18.548C73.4 19.22 73.328 19.76 73.28 20.168C73.232 20.552 73.208 20.912 73.208 21.248C73.208 21.488 73.232 21.716 73.28 21.932C73.352 22.124 73.496 22.22 73.712 22.22C74 22.22 74.372 21.98 74.828 21.5C75.308 21.02 75.8 20.384 76.304 19.592C76.832 18.8 77.324 17.948 77.78 17.036C78.236 16.1 78.608 15.188 78.896 14.3C79.184 13.412 79.328 12.632 79.328 11.96C79.328 11.408 79.256 10.952 79.112 10.592C78.992 10.208 78.944 9.896 78.968 9.656C78.968 9.44 79.16 9.248 79.544 9.08C79.928 8.912 80.384 8.78 80.912 8.684C81.464 8.564 81.992 8.48 82.496 8.432C83 8.36 83.372 8.324 83.612 8.324C84.116 8.324 84.512 8.564 84.8 9.044C85.112 9.524 85.22 10.208 85.124 11.096L83.432 26.36H80.48C80.168 26.36 79.88 26.24 79.616 26C79.352 25.736 79.136 25.424 78.968 25.064C78.8 24.704 78.716 24.356 78.716 24.02C78.716 23.468 78.812 22.868 79.004 22.22C79.196 21.572 79.448 20.744 79.76 19.736C80.096 18.728 80.48 17.432 80.912 15.848V16.46C79.976 18.908 78.98 20.864 77.924 22.328C76.868 23.792 75.776 24.848 74.648 25.496C73.52 26.144 72.368 26.468 71.192 26.468ZM91.8363 26.576C90.6843 26.576 89.7723 26.24 89.1003 25.568C88.4283 24.896 88.1883 23.84 88.3803 22.4L89.7483 12.14H88.8123C88.2843 12.14 88.0203 11.9 88.0203 11.42C88.0203 11.132 88.1883 10.724 88.5243 10.196C88.8843 9.644 89.3403 9.068 89.8923 8.468C90.4683 7.844 91.0563 7.256 91.6563 6.704C92.2803 6.152 92.8683 5.696 93.4203 5.336C93.9723 4.976 94.4163 4.796 94.7523 4.796C95.1363 4.796 95.4123 4.928 95.5803 5.192C95.7723 5.432 95.8443 5.804 95.7963 6.308L95.5083 8.9H99.0003C99.3603 8.9 99.5643 8.96 99.6123 9.08C99.6603 9.2 99.6483 9.392 99.5763 9.656C99.2643 10.64 98.9763 11.3 98.7123 11.636C98.4723 11.972 98.0163 12.14 97.3443 12.14H95.0043L94.1403 19.124C94.0923 19.58 94.0443 20.012 93.9963 20.42C93.9723 20.828 93.9603 21.2 93.9603 21.536C93.9603 21.848 94.0323 22.124 94.1763 22.364C94.3443 22.58 94.6443 22.688 95.0763 22.688C95.6283 22.688 96.1083 22.568 96.5163 22.328C96.9483 22.088 97.2723 21.968 97.4883 21.968C97.8243 21.968 97.9923 22.148 97.9923 22.508C97.9923 22.82 97.8603 23.204 97.5963 23.66C97.3323 24.116 96.9363 24.572 96.4083 25.028C95.9043 25.46 95.2683 25.82 94.5003 26.108C93.7323 26.42 92.8443 26.576 91.8363 26.576ZM111.524 26.576C110.372 26.576 109.46 26.24 108.788 25.568C108.116 24.896 107.876 23.84 108.068 22.4L109.436 12.14H108.5C107.972 12.14 107.708 11.9 107.708 11.42C107.708 11.132 107.876 10.724 108.212 10.196C108.572 9.644 109.028 9.068 109.58 8.468C110.156 7.844 110.744 7.256 111.344 6.704C111.968 6.152 112.556 5.696 113.108 5.336C113.66 4.976 114.104 4.796 114.44 4.796C114.824 4.796 115.1 4.928 115.268 5.192C115.46 5.432 115.532 5.804 115.484 6.308L115.196 8.9H118.688C119.048 8.9 119.252 8.96 119.3 9.08C119.348 9.2 119.336 9.392 119.264 9.656C118.952 10.64 118.664 11.3 118.4 11.636C118.16 11.972 117.704 12.14 117.032 12.14H114.692L113.828 19.124C113.78 19.58 113.732 20.012 113.684 20.42C113.66 20.828 113.648 21.2 113.648 21.536C113.648 21.848 113.72 22.124 113.864 22.364C114.032 22.58 114.332 22.688 114.764 22.688C115.316 22.688 115.796 22.568 116.204 22.328C116.636 22.088 116.96 21.968 117.176 21.968C117.512 21.968 117.68 22.148 117.68 22.508C117.68 22.82 117.548 23.204 117.284 23.66C117.02 24.116 116.624 24.572 116.096 25.028C115.592 25.46 114.956 25.82 114.188 26.108C113.42 26.42 112.532 26.576 111.524 26.576ZM132.824 26.36C132.488 26.36 132.212 26.24 131.996 26C131.804 25.76 131.66 25.484 131.564 25.172C131.468 24.836 131.42 24.572 131.42 24.38C131.42 24.044 131.444 23.612 131.492 23.084C131.54 22.556 131.6 22.004 131.672 21.428C131.744 20.828 131.816 20.312 131.888 19.88L132.5 16.28C132.596 15.728 132.692 15.2 132.788 14.696C132.884 14.192 132.932 13.796 132.932 13.508C132.932 13.292 132.884 13.1 132.788 12.932C132.692 12.74 132.536 12.644 132.32 12.644C132.008 12.644 131.54 12.92 130.916 13.472C130.316 14.024 129.656 14.828 128.936 15.884C128.24 16.94 127.604 18.224 127.028 19.736C126.476 21.248 126.104 22.964 125.912 24.884L124.616 19.988C125.6 17.204 126.704 14.96 127.928 13.256C129.152 11.552 130.376 10.316 131.6 9.548C132.824 8.756 133.928 8.36 134.912 8.36C136.088 8.36 136.976 8.66 137.576 9.26C138.176 9.86 138.476 10.652 138.476 11.636C138.476 12.212 138.428 12.776 138.332 13.328C138.26 13.88 138.176 14.468 138.08 15.092L136.352 26.36H132.824ZM121.772 26.504C121.46 26.504 121.184 26.432 120.944 26.288C120.728 26.144 120.572 25.844 120.476 25.388C120.404 24.908 120.416 24.188 120.512 23.228L122.06 9.044C122.204 7.676 122.384 6.32 122.6 4.976C122.816 3.608 122.96 2.24 123.032 0.872H126.452C127.052 0.872 127.544 1.184 127.928 1.808C128.312 2.408 128.504 3.032 128.504 3.68C128.504 4.208 128.468 4.7 128.396 5.156C128.324 5.588 128.228 6.044 128.108 6.524C128.012 7.004 127.88 7.592 127.712 8.288L125.264 18.836L126.38 17.36C126.212 18.896 126.104 20.348 126.056 21.716C126.008 23.084 125.96 24.14 125.912 24.884C125.888 25.196 125.612 25.472 125.084 25.712C124.556 25.952 123.968 26.144 123.32 26.288C122.696 26.432 122.18 26.504 121.772 26.504ZM146.9 26.576C145.052 26.576 143.528 26 142.328 24.848C141.152 23.672 140.564 22.064 140.564 20.024C140.564 18.32 140.828 16.76 141.356 15.344C141.884 13.928 142.616 12.692 143.552 11.636C144.512 10.58 145.604 9.764 146.828 9.188C148.076 8.612 149.396 8.324 150.788 8.324C152.324 8.324 153.62 8.684 154.676 9.404C155.732 10.1 156.26 11.12 156.26 12.464C156.26 13.76 155.768 14.9 154.784 15.884C153.824 16.868 152.48 17.72 150.752 18.44C149.024 19.136 147.02 19.724 144.74 20.204L144.272 17.684C145.424 17.54 146.48 17.276 147.44 16.892C148.424 16.484 149.228 15.956 149.852 15.308C150.476 14.66 150.812 13.916 150.86 13.076C150.908 12.5 150.824 12.02 150.608 11.636C150.392 11.228 150.068 11.024 149.636 11.024C149.108 11.024 148.568 11.372 148.016 12.068C147.488 12.764 147.044 13.688 146.684 14.84C146.324 15.992 146.144 17.24 146.144 18.584C146.144 19.808 146.288 20.792 146.576 21.536C146.864 22.256 147.5 22.616 148.484 22.616C149.468 22.616 150.416 22.424 151.328 22.04C152.264 21.632 153.032 21.236 153.632 20.852C153.824 20.732 154.016 20.624 154.208 20.528C154.4 20.408 154.568 20.348 154.712 20.348C154.88 20.348 155.012 20.42 155.108 20.564C155.204 20.684 155.252 20.84 155.252 21.032C155.252 21.464 155.072 21.992 154.712 22.616C154.352 23.24 153.812 23.852 153.092 24.452C152.396 25.052 151.532 25.556 150.5 25.964C149.468 26.372 148.268 26.576 146.9 26.576ZM170.088 26.576C168.072 26.576 166.5 26.288 165.372 25.712C164.244 25.112 163.68 24.236 163.68 23.084C163.68 22.292 163.788 21.68 164.004 21.248C164.22 20.792 164.472 20.564 164.76 20.564C164.976 20.564 165.192 20.624 165.408 20.744C165.624 20.864 165.924 21.068 166.308 21.356C166.716 21.644 167.208 21.956 167.784 22.292C168.36 22.628 168.948 22.916 169.548 23.156C170.172 23.396 170.724 23.516 171.204 23.516C171.708 23.516 172.14 23.396 172.5 23.156C172.86 22.916 173.04 22.556 173.04 22.076C173.04 21.74 172.944 21.44 172.752 21.176C172.56 20.912 172.176 20.612 171.6 20.276L168.864 18.656C167.832 18.032 167.028 17.336 166.452 16.568C165.876 15.776 165.588 14.852 165.588 13.796C165.588 12.164 166.188 10.856 167.388 9.872C168.588 8.864 170.436 8.36 172.932 8.36C174.468 8.36 175.656 8.504 176.496 8.792C177.336 9.08 177.756 9.608 177.756 10.376C177.756 11.144 177.624 11.816 177.36 12.392C177.12 12.968 176.796 13.256 176.388 13.256C176.244 13.256 176.088 13.22 175.92 13.148C175.752 13.076 175.584 13.004 175.416 12.932C175.152 12.812 174.804 12.62 174.372 12.356C173.94 12.092 173.484 11.852 173.004 11.636C172.548 11.42 172.104 11.312 171.672 11.312C171.216 11.312 170.868 11.444 170.628 11.708C170.412 11.948 170.304 12.224 170.304 12.536C170.304 12.896 170.4 13.208 170.592 13.472C170.808 13.736 171.252 14 171.924 14.264L174.336 15.236C175.656 15.764 176.616 16.436 177.216 17.252C177.84 18.068 178.152 19.04 178.152 20.168C178.152 21.536 177.78 22.7 177.036 23.66C176.292 24.62 175.308 25.352 174.084 25.856C172.86 26.336 171.528 26.576 170.088 26.576ZM183.868 26.468C182.932 26.468 182.116 26.204 181.42 25.676C180.724 25.124 180.376 24.26 180.376 23.084C180.376 22.724 180.376 22.388 180.376 22.076C180.4 21.764 180.436 21.38 180.484 20.924C180.556 20.468 180.64 19.844 180.736 19.052L182.104 8.324H185.344C185.752 8.324 186.136 8.564 186.496 9.044C186.88 9.5 187.072 10.064 187.072 10.736C187.072 11.24 187.036 11.9 186.964 12.716C186.892 13.532 186.784 14.432 186.64 15.416L186.172 18.548C186.076 19.22 186.004 19.76 185.956 20.168C185.908 20.552 185.884 20.912 185.884 21.248C185.884 21.488 185.908 21.716 185.956 21.932C186.028 22.124 186.172 22.22 186.388 22.22C186.676 22.22 187.048 21.98 187.504 21.5C187.984 21.02 188.476 20.384 188.98 19.592C189.508 18.8 190 17.948 190.456 17.036C190.912 16.1 191.284 15.188 191.572 14.3C191.86 13.412 192.004 12.632 192.004 11.96C192.004 11.408 191.932 10.952 191.788 10.592C191.668 10.208 191.62 9.896 191.644 9.656C191.644 9.44 191.836 9.248 192.22 9.08C192.604 8.912 193.06 8.78 193.588 8.684C194.14 8.564 194.668 8.48 195.172 8.432C195.676 8.36 196.048 8.324 196.288 8.324C196.792 8.324 197.188 8.564 197.476 9.044C197.788 9.524 197.896 10.208 197.8 11.096L196.108 26.36H193.156C192.844 26.36 192.556 26.24 192.292 26C192.028 25.736 191.812 25.424 191.644 25.064C191.476 24.704 191.392 24.356 191.392 24.02C191.392 23.468 191.488 22.868 191.68 22.22C191.872 21.572 192.124 20.744 192.436 19.736C192.772 18.728 193.156 17.432 193.588 15.848V16.46C192.652 18.908 191.656 20.864 190.6 22.328C189.544 23.792 188.452 24.848 187.324 25.496C186.196 26.144 185.044 26.468 183.868 26.468ZM206.132 24.848L204.764 19.7C205.652 17.396 206.552 15.404 207.464 13.724C208.376 12.02 209.312 10.7 210.272 9.764C211.232 8.828 212.204 8.36 213.188 8.36C213.812 8.36 214.328 8.528 214.736 8.864C215.168 9.2 215.384 9.788 215.384 10.628C215.384 11.18 215.312 11.732 215.168 12.284C215.024 12.836 214.82 13.292 214.556 13.652C214.292 14.012 213.98 14.192 213.62 14.192C213.308 14.192 212.924 14.084 212.468 13.868C212.036 13.628 211.544 13.508 210.992 13.508C210.632 13.508 210.212 13.796 209.732 14.372C209.276 14.924 208.796 15.704 208.292 16.712C207.812 17.72 207.38 18.92 206.996 20.312C206.612 21.68 206.324 23.192 206.132 24.848ZM201.632 26.504C201.32 26.504 201.068 26.444 200.876 26.324C200.708 26.228 200.6 25.952 200.552 25.496C200.528 25.04 200.576 24.308 200.696 23.3L202.388 8.324H205.916C206.564 8.324 207.02 8.588 207.284 9.116C207.572 9.644 207.716 10.244 207.716 10.916C207.716 11.228 207.584 11.72 207.32 12.392C207.08 13.04 206.804 13.736 206.492 14.48C206.204 15.2 205.976 15.836 205.808 16.388L204.944 19.34L206.744 19.124L206.132 24.848C206.108 25.184 205.892 25.46 205.484 25.676C205.076 25.892 204.596 26.06 204.044 26.18C203.492 26.3 202.988 26.384 202.532 26.432C202.076 26.48 201.776 26.504 201.632 26.504ZM221.468 26.576C220.364 26.576 219.44 26.216 218.696 25.496C217.952 24.752 217.508 23.636 217.364 22.148L216.572 14.084C216.524 13.532 216.44 12.98 216.32 12.428C216.224 11.852 216.092 11.396 215.924 11.06C215.756 10.724 215.612 10.496 215.492 10.376C215.372 10.232 215.312 10.064 215.312 9.872C215.312 9.68 215.48 9.5 215.816 9.332C216.176 9.14 216.608 8.972 217.112 8.828C217.616 8.66 218.132 8.54 218.66 8.468C219.188 8.372 219.632 8.324 219.992 8.324C220.544 8.324 220.952 8.552 221.216 9.008C221.48 9.464 221.684 10.364 221.828 11.708L222.836 20.852C222.908 21.548 222.992 22.04 223.088 22.328C223.208 22.616 223.388 22.76 223.628 22.76C223.748 22.76 223.976 22.568 224.312 22.184C224.648 21.8 225.008 21.2 225.392 20.384C225.8 19.568 226.136 18.524 226.4 17.252C226.688 15.98 226.832 14.456 226.832 12.68C226.832 12.104 226.748 11.66 226.58 11.348C226.436 11.036 226.364 10.76 226.364 10.52C226.364 10.256 226.532 9.992 226.868 9.728C227.204 9.464 227.624 9.224 228.128 9.008C228.632 8.792 229.124 8.624 229.604 8.504C230.108 8.384 230.516 8.324 230.828 8.324C231.188 8.324 231.548 8.42 231.908 8.612C232.268 8.804 232.448 9.308 232.448 10.124C232.448 11.228 232.268 12.5 231.908 13.94C231.572 15.356 231.08 16.808 230.432 18.296C229.784 19.76 229.004 21.128 228.092 22.4C227.204 23.648 226.196 24.656 225.068 25.424C223.964 26.192 222.764 26.576 221.468 26.576ZM239.888 26.576C238.04 26.576 236.516 26 235.316 24.848C234.14 23.672 233.552 22.064 233.552 20.024C233.552 18.32 233.816 16.76 234.344 15.344C234.872 13.928 235.604 12.692 236.54 11.636C237.5 10.58 238.592 9.764 239.816 9.188C241.064 8.612 242.384 8.324 243.776 8.324C245.312 8.324 246.608 8.684 247.664 9.404C248.72 10.1 249.248 11.12 249.248 12.464C249.248 13.76 248.756 14.9 247.772 15.884C246.812 16.868 245.468 17.72 243.74 18.44C242.012 19.136 240.008 19.724 237.728 20.204L237.26 17.684C238.412 17.54 239.468 17.276 240.428 16.892C241.412 16.484 242.216 15.956 242.84 15.308C243.464 14.66 243.8 13.916 243.848 13.076C243.896 12.5 243.812 12.02 243.596 11.636C243.38 11.228 243.056 11.024 242.624 11.024C242.096 11.024 241.556 11.372 241.004 12.068C240.476 12.764 240.032 13.688 239.672 14.84C239.312 15.992 239.132 17.24 239.132 18.584C239.132 19.808 239.276 20.792 239.564 21.536C239.852 22.256 240.488 22.616 241.472 22.616C242.456 22.616 243.404 22.424 244.316 22.04C245.252 21.632 246.02 21.236 246.62 20.852C246.812 20.732 247.004 20.624 247.196 20.528C247.388 20.408 247.556 20.348 247.7 20.348C247.868 20.348 248 20.42 248.096 20.564C248.192 20.684 248.24 20.84 248.24 21.032C248.24 21.464 248.06 21.992 247.7 22.616C247.34 23.24 246.8 23.852 246.08 24.452C245.384 25.052 244.52 25.556 243.488 25.964C242.456 26.372 241.256 26.576 239.888 26.576ZM256.013 33.956C254.525 33.956 253.349 33.74 252.485 33.308C251.621 32.876 251.009 32.288 250.649 31.544C250.289 30.8 250.109 29.948 250.109 28.988C250.109 28.508 250.205 28.136 250.397 27.872C250.589 27.632 250.769 27.512 250.937 27.512C251.129 27.512 251.297 27.584 251.441 27.728C251.585 27.896 251.801 28.076 252.089 28.268C252.545 28.556 253.085 28.868 253.709 29.204C254.333 29.54 254.993 29.828 255.689 30.068C256.385 30.308 257.045 30.428 257.669 30.428C258.029 30.428 258.425 30.284 258.857 29.996C259.289 29.708 259.733 29.132 260.189 28.268C260.669 27.404 261.137 26.108 261.593 24.38L263.717 16.172H263.897C263.057 18.524 262.097 20.468 261.017 22.004C259.937 23.516 258.773 24.632 257.525 25.352C256.301 26.072 255.053 26.432 253.781 26.432C252.773 26.432 252.029 26.156 251.549 25.604C251.069 25.052 250.829 24.284 250.829 23.3C250.829 22.82 250.853 22.292 250.901 21.716C250.973 21.14 251.081 20.24 251.225 19.016L252.557 8.324H255.797C256.205 8.324 256.589 8.564 256.949 9.044C257.333 9.5 257.525 10.064 257.525 10.736C257.525 11.072 257.501 11.48 257.453 11.96C257.429 12.44 257.381 12.98 257.309 13.58C257.261 14.156 257.189 14.768 257.093 15.416L256.625 18.548C256.529 19.22 256.457 19.76 256.409 20.168C256.361 20.552 256.337 20.912 256.337 21.248C256.337 21.488 256.361 21.716 256.409 21.932C256.481 22.124 256.625 22.22 256.841 22.22C257.129 22.22 257.501 21.98 257.957 21.5C258.413 21.02 258.893 20.396 259.397 19.628C259.901 18.86 260.369 18.032 260.801 17.144C261.257 16.256 261.629 15.392 261.917 14.552C262.205 13.688 262.349 12.956 262.349 12.356C262.349 11.948 262.337 11.516 262.313 11.06C262.289 10.58 262.277 10.22 262.277 9.98C262.277 9.668 262.517 9.392 262.997 9.152C263.477 8.912 264.065 8.72 264.761 8.576C265.457 8.408 266.117 8.324 266.741 8.324C267.245 8.324 267.617 8.564 267.857 9.044C268.121 9.524 268.205 10.208 268.109 11.096C268.085 11.504 268.037 12.02 267.965 12.644C267.893 13.268 267.809 13.928 267.713 14.624L266.489 24.92C266.297 26.576 265.853 27.98 265.157 29.132C264.461 30.284 263.609 31.208 262.601 31.904C261.617 32.624 260.549 33.14 259.397 33.452C258.245 33.788 257.117 33.956 256.013 33.956Z" fill="black"/>
</svg>
