<svg width="393" height="34" viewBox="0 0 393 34" fill="none" xmlns="http://www.w3.org/2000/svg">
<path d="M8.27605 26.468C6.09205 26.468 4.30405 26.168 2.91205 25.568C1.52005 24.944 0.824047 24.008 0.824047 22.76C0.824047 21.752 0.932047 21.02 1.14805 20.564C1.38805 20.108 1.70005 19.88 2.08405 19.88C2.37205 19.88 2.72005 20.048 3.12805 20.384C3.56005 20.696 4.06405 21.056 4.64005 21.464C5.24005 21.872 5.88805 22.244 6.58405 22.58C7.30405 22.892 8.09605 23.048 8.96005 23.048C10.256 23.048 11.144 22.76 11.624 22.184C12.128 21.584 12.38 20.948 12.38 20.276C12.38 19.604 12.224 18.992 11.912 18.44C11.6 17.888 11.012 17.324 10.148 16.748L7.34005 14.876C6.54805 14.348 5.78005 13.76 5.03605 13.112C4.31605 12.464 3.71605 11.72 3.23605 10.88C2.75605 10.04 2.51605 9.08 2.51605 8C2.51605 6.512 2.92405 5.24 3.74005 4.184C4.55605 3.128 5.68405 2.324 7.12405 1.772C8.58805 1.22 10.268 0.943999 12.164 0.943999C13.652 0.943999 14.828 1.04 15.692 1.232C16.58 1.4 17.216 1.676 17.6 2.06C17.984 2.42 18.176 2.888 18.176 3.464C18.176 4.136 18.068 4.76 17.852 5.336C17.636 5.912 17.348 6.2 16.988 6.2C16.748 6.2 16.46 6.092 16.124 5.876C15.788 5.66 15.368 5.444 14.864 5.228C14.336 4.988 13.772 4.796 13.172 4.652C12.596 4.484 11.96 4.4 11.264 4.4C10.352 4.4 9.64405 4.676 9.14005 5.228C8.66005 5.756 8.42005 6.392 8.42005 7.136C8.42005 7.664 8.57605 8.168 8.88805 8.648C9.20005 9.128 9.76405 9.584 10.58 10.016L13.172 11.348C14.3 11.924 15.272 12.512 16.088 13.112C16.904 13.688 17.54 14.396 17.996 15.236C18.452 16.076 18.68 17.168 18.68 18.512C18.68 21.056 17.744 23.024 15.872 24.416C14.024 25.784 11.492 26.468 8.27605 26.468ZM24.732 26.576C23.388 26.576 22.332 26.024 21.564 24.92C20.82 23.792 20.448 22.268 20.448 20.348C20.448 18.596 20.724 16.988 21.276 15.524C21.852 14.06 22.62 12.8 23.58 11.744C24.564 10.664 25.668 9.836 26.892 9.26C28.116 8.66 29.388 8.36 30.708 8.36C31.74 8.36 32.676 8.504 33.516 8.792C34.38 9.056 35.112 9.332 35.712 9.62L34.668 14.444C34.044 14.012 33.348 13.568 32.58 13.112C31.812 12.632 31.068 12.236 30.348 11.924C29.628 11.588 29.016 11.42 28.512 11.42C28.032 11.42 27.576 11.804 27.144 12.572C26.736 13.34 26.4 14.312 26.136 15.488C25.896 16.64 25.776 17.828 25.776 19.052C25.776 20.108 25.836 20.996 25.956 21.716C26.076 22.412 26.292 22.76 26.604 22.76C26.868 22.76 27.312 22.448 27.936 21.824C28.584 21.176 29.388 20.06 30.348 18.476C31.308 16.892 32.376 14.684 33.552 11.852L34.956 15.308C33.66 18.188 32.424 20.456 31.248 22.112C30.072 23.744 28.944 24.896 27.864 25.568C26.808 26.24 25.764 26.576 24.732 26.576ZM33.912 26.36C33.144 26.36 32.628 26.192 32.364 25.856C32.1 25.52 31.968 25.088 31.968 24.56C31.968 24.152 32.016 23.624 32.112 22.976C32.232 22.304 32.376 21.584 32.544 20.816C32.712 20.048 32.892 19.328 33.084 18.656L33.876 15.956L32.652 15.02L33.516 9.584C34.284 9.464 35.016 9.308 35.712 9.116C36.432 8.924 37.068 8.756 37.62 8.612C38.172 8.468 38.58 8.396 38.844 8.396C39.3 8.396 39.528 8.636 39.528 9.116C39.528 9.332 39.372 9.86 39.06 10.7C38.772 11.54 38.46 12.608 38.124 13.904C37.788 15.176 37.536 16.604 37.368 18.188L36.576 26.36H33.912ZM47.1026 26.576C45.9986 26.576 45.0746 26.216 44.3306 25.496C43.5866 24.752 43.1426 23.636 42.9986 22.148L42.2066 14.084C42.1586 13.532 42.0746 12.98 41.9546 12.428C41.8586 11.852 41.7266 11.396 41.5586 11.06C41.3906 10.724 41.2466 10.496 41.1266 10.376C41.0066 10.232 40.9466 10.064 40.9466 9.872C40.9466 9.68 41.1146 9.5 41.4506 9.332C41.8106 9.14 42.2426 8.972 42.7466 8.828C43.2506 8.66 43.7666 8.54 44.2946 8.468C44.8226 8.372 45.2666 8.324 45.6266 8.324C46.1786 8.324 46.5866 8.552 46.8506 9.008C47.1146 9.464 47.3186 10.364 47.4626 11.708L48.4706 20.852C48.5426 21.548 48.6266 22.04 48.7226 22.328C48.8426 22.616 49.0226 22.76 49.2626 22.76C49.3826 22.76 49.6106 22.568 49.9466 22.184C50.2826 21.8 50.6426 21.2 51.0266 20.384C51.4346 19.568 51.7706 18.524 52.0346 17.252C52.3226 15.98 52.4666 14.456 52.4666 12.68C52.4666 12.104 52.3826 11.66 52.2146 11.348C52.0706 11.036 51.9986 10.76 51.9986 10.52C51.9986 10.256 52.1666 9.992 52.5026 9.728C52.8386 9.464 53.2586 9.224 53.7626 9.008C54.2666 8.792 54.7586 8.624 55.2386 8.504C55.7426 8.384 56.1506 8.324 56.4626 8.324C56.8226 8.324 57.1826 8.42 57.5426 8.612C57.9026 8.804 58.0826 9.308 58.0826 10.124C58.0826 11.228 57.9026 12.5 57.5426 13.94C57.2066 15.356 56.7146 16.808 56.0666 18.296C55.4186 19.76 54.6386 21.128 53.7266 22.4C52.8386 23.648 51.8306 24.656 50.7026 25.424C49.5986 26.192 48.3986 26.576 47.1026 26.576ZM65.5228 26.576C63.6748 26.576 62.1508 26 60.9508 24.848C59.7748 23.672 59.1868 22.064 59.1868 20.024C59.1868 18.32 59.4508 16.76 59.9788 15.344C60.5068 13.928 61.2388 12.692 62.1748 11.636C63.1348 10.58 64.2268 9.764 65.4508 9.188C66.6988 8.612 68.0188 8.324 69.4108 8.324C70.9468 8.324 72.2428 8.684 73.2988 9.404C74.3548 10.1 74.8828 11.12 74.8828 12.464C74.8828 13.76 74.3908 14.9 73.4068 15.884C72.4468 16.868 71.1028 17.72 69.3748 18.44C67.6468 19.136 65.6428 19.724 63.3628 20.204L62.8948 17.684C64.0468 17.54 65.1028 17.276 66.0628 16.892C67.0468 16.484 67.8508 15.956 68.4748 15.308C69.0988 14.66 69.4348 13.916 69.4828 13.076C69.5308 12.5 69.4468 12.02 69.2308 11.636C69.0148 11.228 68.6908 11.024 68.2588 11.024C67.7308 11.024 67.1908 11.372 66.6388 12.068C66.1108 12.764 65.6668 13.688 65.3068 14.84C64.9468 15.992 64.7668 17.24 64.7668 18.584C64.7668 19.808 64.9108 20.792 65.1988 21.536C65.4868 22.256 66.1228 22.616 67.1068 22.616C68.0908 22.616 69.0388 22.424 69.9508 22.04C70.8868 21.632 71.6548 21.236 72.2548 20.852C72.4468 20.732 72.6388 20.624 72.8308 20.528C73.0228 20.408 73.1908 20.348 73.3348 20.348C73.5028 20.348 73.6348 20.42 73.7308 20.564C73.8268 20.684 73.8748 20.84 73.8748 21.032C73.8748 21.464 73.6948 21.992 73.3348 22.616C72.9748 23.24 72.4348 23.852 71.7148 24.452C71.0188 25.052 70.1548 25.556 69.1228 25.964C68.0908 26.372 66.8908 26.576 65.5228 26.576ZM87.4507 26.576C86.1067 26.576 85.0507 26.024 84.2827 24.92C83.5387 23.792 83.1667 22.268 83.1667 20.348C83.1667 18.596 83.4427 16.988 83.9947 15.524C84.5707 14.06 85.3387 12.8 86.2987 11.744C87.2827 10.664 88.3867 9.836 89.6107 9.26C90.8347 8.66 92.1067 8.36 93.4267 8.36C94.4587 8.36 95.3947 8.504 96.2347 8.792C97.0987 9.056 97.8307 9.332 98.4307 9.62L97.3867 14.444C96.7627 14.012 96.0667 13.568 95.2987 13.112C94.5307 12.632 93.7867 12.236 93.0667 11.924C92.3467 11.588 91.7347 11.42 91.2307 11.42C90.7507 11.42 90.2947 11.804 89.8627 12.572C89.4547 13.34 89.1187 14.312 88.8547 15.488C88.6147 16.64 88.4947 17.828 88.4947 19.052C88.4947 20.108 88.5547 20.996 88.6747 21.716C88.7947 22.412 89.0107 22.76 89.3227 22.76C89.5867 22.76 90.0307 22.448 90.6547 21.824C91.3027 21.176 92.1067 20.06 93.0667 18.476C94.0267 16.892 95.0947 14.684 96.2707 11.852L97.6747 15.308C96.3787 18.188 95.1427 20.456 93.9667 22.112C92.7907 23.744 91.6627 24.896 90.5827 25.568C89.5267 26.24 88.4827 26.576 87.4507 26.576ZM96.6307 26.36C95.8627 26.36 95.3467 26.192 95.0827 25.856C94.8187 25.52 94.6867 25.088 94.6867 24.56C94.6867 24.152 94.7347 23.624 94.8307 22.976C94.9507 22.304 95.0947 21.584 95.2627 20.816C95.4307 20.048 95.6107 19.328 95.8027 18.656L96.5947 15.956L95.3707 15.02L96.2347 9.584C97.0027 9.464 97.7347 9.308 98.4307 9.116C99.1507 8.924 99.7867 8.756 100.339 8.612C100.891 8.468 101.299 8.396 101.563 8.396C102.019 8.396 102.247 8.636 102.247 9.116C102.247 9.332 102.091 9.86 101.779 10.7C101.491 11.54 101.179 12.608 100.843 13.904C100.507 15.176 100.255 16.604 100.087 18.188L99.2947 26.36H96.6307ZM116.409 26.36C116.025 26.36 115.737 26.192 115.545 25.856C115.353 25.496 115.221 25.112 115.149 24.704C115.077 24.296 115.041 23.984 115.041 23.768C115.041 23.432 115.065 23.048 115.113 22.616C115.161 22.184 115.209 21.728 115.257 21.248C115.329 20.768 115.401 20.312 115.473 19.88L116.085 16.136C116.157 15.656 116.241 15.164 116.337 14.66C116.457 14.132 116.517 13.712 116.517 13.4C116.517 13.136 116.457 12.944 116.337 12.824C116.217 12.704 116.073 12.644 115.905 12.644C115.593 12.644 115.125 12.932 114.501 13.508C113.877 14.084 113.217 14.912 112.521 15.992C111.825 17.072 111.189 18.368 110.613 19.88C110.061 21.368 109.689 23.024 109.497 24.848L108.093 19.34C108.813 17.252 109.629 15.512 110.541 14.12C111.453 12.704 112.389 11.576 113.349 10.736C114.333 9.896 115.269 9.296 116.157 8.936C117.069 8.552 117.873 8.36 118.569 8.36C119.433 8.36 120.117 8.528 120.621 8.864C121.149 9.176 121.521 9.584 121.737 10.088C121.953 10.592 122.061 11.096 122.061 11.6C122.061 12.248 122.013 12.836 121.917 13.364C121.845 13.892 121.761 14.468 121.665 15.092L119.937 26.36H116.409ZM104.997 26.504C104.685 26.504 104.433 26.444 104.241 26.324C104.073 26.228 103.965 25.952 103.917 25.496C103.893 25.04 103.941 24.308 104.061 23.3L105.753 8.324H109.281C109.929 8.324 110.385 8.588 110.649 9.116C110.937 9.644 111.081 10.244 111.081 10.916C111.081 11.228 110.949 11.72 110.685 12.392C110.421 13.04 110.121 13.736 109.785 14.48C109.473 15.2 109.221 15.836 109.029 16.388L108.093 19.34L110.109 19.124L109.497 24.848C109.473 25.184 109.257 25.46 108.849 25.676C108.441 25.892 107.961 26.06 107.409 26.18C106.857 26.3 106.353 26.384 105.897 26.432C105.441 26.48 105.141 26.504 104.997 26.504ZM128.759 26.576C127.415 26.576 126.359 26.024 125.591 24.92C124.847 23.792 124.475 22.268 124.475 20.348C124.475 18.596 124.751 16.988 125.303 15.524C125.879 14.06 126.647 12.8 127.607 11.744C128.591 10.664 129.695 9.836 130.919 9.26C132.143 8.66 133.415 8.36 134.735 8.36C135.767 8.36 136.703 8.504 137.543 8.792C138.407 9.056 139.139 9.332 139.739 9.62L138.695 14.444C138.047 14.012 137.339 13.568 136.571 13.112C135.827 12.632 135.095 12.236 134.375 11.924C133.655 11.588 133.043 11.42 132.539 11.42C132.059 11.42 131.603 11.804 131.171 12.572C130.763 13.34 130.427 14.312 130.163 15.488C129.923 16.64 129.803 17.828 129.803 19.052C129.803 20.108 129.911 20.96 130.127 21.608C130.343 22.256 130.607 22.58 130.919 22.58C131.183 22.58 131.627 22.28 132.251 21.68C132.899 21.056 133.703 19.976 134.663 18.44C135.623 16.88 136.691 14.684 137.867 11.852L138.983 15.812C137.711 18.692 136.487 20.912 135.311 22.472C134.135 24.032 133.007 25.112 131.927 25.712C130.847 26.288 129.791 26.576 128.759 26.576ZM138.299 26.504C137.915 26.504 137.567 26.336 137.255 26C136.967 25.664 136.739 25.268 136.571 24.812C136.427 24.356 136.355 23.96 136.355 23.624C136.355 22.904 136.511 22.004 136.823 20.924C137.135 19.82 137.519 18.716 137.975 17.612L138.515 16.316L137.039 14.804L137.435 11.024L137.939 10.412L138.839 0.872H142.079C142.487 0.872 142.835 1.016 143.123 1.304C143.435 1.592 143.675 1.952 143.843 2.384C144.035 2.816 144.131 3.248 144.131 3.68C144.131 3.872 144.119 4.136 144.095 4.472C144.071 4.808 144.023 5.252 143.951 5.804C143.903 6.332 143.819 7.028 143.699 7.892L142.547 16.172C142.427 17.108 142.283 18.224 142.115 19.52C141.971 20.816 141.839 22.088 141.719 23.336C141.623 24.584 141.563 25.64 141.539 26.504H138.299ZM159.068 24.848L157.7 19.7C158.588 17.396 159.488 15.404 160.4 13.724C161.312 12.02 162.248 10.7 163.208 9.764C164.168 8.828 165.14 8.36 166.124 8.36C166.748 8.36 167.264 8.528 167.672 8.864C168.104 9.2 168.32 9.788 168.32 10.628C168.32 11.18 168.248 11.732 168.104 12.284C167.96 12.836 167.756 13.292 167.492 13.652C167.228 14.012 166.916 14.192 166.556 14.192C166.244 14.192 165.86 14.084 165.404 13.868C164.972 13.628 164.48 13.508 163.928 13.508C163.568 13.508 163.148 13.796 162.668 14.372C162.212 14.924 161.732 15.704 161.228 16.712C160.748 17.72 160.316 18.92 159.932 20.312C159.548 21.68 159.26 23.192 159.068 24.848ZM154.568 26.504C154.256 26.504 154.004 26.444 153.812 26.324C153.644 26.228 153.536 25.952 153.488 25.496C153.464 25.04 153.512 24.308 153.632 23.3L155.324 8.324H158.852C159.5 8.324 159.956 8.588 160.22 9.116C160.508 9.644 160.652 10.244 160.652 10.916C160.652 11.228 160.52 11.72 160.256 12.392C160.016 13.04 159.74 13.736 159.428 14.48C159.14 15.2 158.912 15.836 158.744 16.388L157.88 19.34L159.68 19.124L159.068 24.848C159.044 25.184 158.828 25.46 158.42 25.676C158.012 25.892 157.532 26.06 156.98 26.18C156.428 26.3 155.924 26.384 155.468 26.432C155.012 26.48 154.712 26.504 154.568 26.504ZM174.331 26.576C172.483 26.576 170.959 26 169.759 24.848C168.583 23.672 167.995 22.064 167.995 20.024C167.995 18.32 168.259 16.76 168.787 15.344C169.315 13.928 170.047 12.692 170.983 11.636C171.943 10.58 173.035 9.764 174.259 9.188C175.507 8.612 176.827 8.324 178.219 8.324C179.755 8.324 181.051 8.684 182.107 9.404C183.163 10.1 183.691 11.12 183.691 12.464C183.691 13.76 183.199 14.9 182.215 15.884C181.255 16.868 179.911 17.72 178.183 18.44C176.455 19.136 174.451 19.724 172.171 20.204L171.703 17.684C172.855 17.54 173.911 17.276 174.871 16.892C175.855 16.484 176.659 15.956 177.283 15.308C177.907 14.66 178.243 13.916 178.291 13.076C178.339 12.5 178.255 12.02 178.039 11.636C177.823 11.228 177.499 11.024 177.067 11.024C176.539 11.024 175.999 11.372 175.447 12.068C174.919 12.764 174.475 13.688 174.115 14.84C173.755 15.992 173.575 17.24 173.575 18.584C173.575 19.808 173.719 20.792 174.007 21.536C174.295 22.256 174.931 22.616 175.915 22.616C176.899 22.616 177.847 22.424 178.759 22.04C179.695 21.632 180.463 21.236 181.063 20.852C181.255 20.732 181.447 20.624 181.639 20.528C181.831 20.408 181.999 20.348 182.143 20.348C182.311 20.348 182.443 20.42 182.539 20.564C182.635 20.684 182.683 20.84 182.683 21.032C182.683 21.464 182.503 21.992 182.143 22.616C181.783 23.24 181.243 23.852 180.523 24.452C179.827 25.052 178.963 25.556 177.931 25.964C176.899 26.372 175.699 26.576 174.331 26.576ZM185.668 33.884C185.236 33.884 184.924 33.752 184.732 33.488C184.54 33.248 184.444 32.936 184.444 32.552C184.444 32.192 184.492 31.628 184.588 30.86L187.216 9.044C187.552 6.26 188.548 4.22 190.204 2.924C191.86 1.604 193.888 0.943999 196.288 0.943999C197.488 0.943999 198.388 1.112 198.988 1.448C199.588 1.76 199.888 2.288 199.888 3.032C199.888 3.44 199.828 3.884 199.708 4.364C199.612 4.82 199.468 5.216 199.276 5.552C199.084 5.888 198.832 6.056 198.52 6.056C198.328 6.056 198.04 5.876 197.656 5.516C197.272 5.132 196.84 4.76 196.36 4.4C195.904 4.016 195.424 3.824 194.92 3.824C194.368 3.824 193.948 4.196 193.66 4.94C193.396 5.684 193.192 6.716 193.048 8.036L191.86 18.512C191.692 19.928 191.548 21.368 191.428 22.832C191.308 24.272 191.188 25.616 191.068 26.864C190.996 27.464 190.78 28.16 190.42 28.952C190.06 29.744 189.604 30.512 189.052 31.256C188.524 32.024 187.96 32.648 187.36 33.128C186.76 33.632 186.196 33.884 185.668 33.884ZM185.668 12.14C185.5 12.14 185.38 12.08 185.308 11.96C185.236 11.84 185.224 11.696 185.272 11.528L185.884 9.8C186.004 9.464 186.172 9.236 186.388 9.116C186.628 8.972 187.072 8.9 187.72 8.9H196.36C196.672 8.9 196.768 9.092 196.648 9.476C196.336 10.388 196.036 11.06 195.748 11.492C195.46 11.924 195.004 12.14 194.38 12.14H185.668ZM202.562 26.576C200.714 26.576 199.19 26 197.99 24.848C196.814 23.672 196.226 22.064 196.226 20.024C196.226 18.32 196.49 16.76 197.018 15.344C197.546 13.928 198.278 12.692 199.214 11.636C200.174 10.58 201.266 9.764 202.49 9.188C203.738 8.612 205.058 8.324 206.45 8.324C207.986 8.324 209.282 8.684 210.338 9.404C211.394 10.1 211.922 11.12 211.922 12.464C211.922 13.76 211.43 14.9 210.446 15.884C209.486 16.868 208.142 17.72 206.414 18.44C204.686 19.136 202.682 19.724 200.402 20.204L199.934 17.684C201.086 17.54 202.142 17.276 203.102 16.892C204.086 16.484 204.89 15.956 205.514 15.308C206.138 14.66 206.474 13.916 206.522 13.076C206.57 12.5 206.486 12.02 206.27 11.636C206.054 11.228 205.73 11.024 205.298 11.024C204.77 11.024 204.23 11.372 203.678 12.068C203.15 12.764 202.706 13.688 202.346 14.84C201.986 15.992 201.806 17.24 201.806 18.584C201.806 19.808 201.95 20.792 202.238 21.536C202.526 22.256 203.162 22.616 204.146 22.616C205.13 22.616 206.078 22.424 206.99 22.04C207.926 21.632 208.694 21.236 209.294 20.852C209.486 20.732 209.678 20.624 209.87 20.528C210.062 20.408 210.23 20.348 210.374 20.348C210.542 20.348 210.674 20.42 210.77 20.564C210.866 20.684 210.914 20.84 210.914 21.032C210.914 21.464 210.734 21.992 210.374 22.616C210.014 23.24 209.474 23.852 208.754 24.452C208.058 25.052 207.194 25.556 206.162 25.964C205.13 26.372 203.93 26.576 202.562 26.576ZM218.939 24.848L217.571 19.7C218.459 17.396 219.359 15.404 220.271 13.724C221.183 12.02 222.119 10.7 223.079 9.764C224.039 8.828 225.011 8.36 225.995 8.36C226.619 8.36 227.135 8.528 227.543 8.864C227.975 9.2 228.191 9.788 228.191 10.628C228.191 11.18 228.119 11.732 227.975 12.284C227.831 12.836 227.627 13.292 227.363 13.652C227.099 14.012 226.787 14.192 226.427 14.192C226.115 14.192 225.731 14.084 225.275 13.868C224.843 13.628 224.351 13.508 223.799 13.508C223.439 13.508 223.019 13.796 222.539 14.372C222.083 14.924 221.603 15.704 221.099 16.712C220.619 17.72 220.187 18.92 219.803 20.312C219.419 21.68 219.131 23.192 218.939 24.848ZM214.439 26.504C214.127 26.504 213.875 26.444 213.683 26.324C213.515 26.228 213.407 25.952 213.359 25.496C213.335 25.04 213.383 24.308 213.503 23.3L215.195 8.324H218.723C219.371 8.324 219.827 8.588 220.091 9.116C220.379 9.644 220.523 10.244 220.523 10.916C220.523 11.228 220.391 11.72 220.127 12.392C219.887 13.04 219.611 13.736 219.299 14.48C219.011 15.2 218.783 15.836 218.615 16.388L217.751 19.34L219.551 19.124L218.939 24.848C218.915 25.184 218.699 25.46 218.291 25.676C217.883 25.892 217.403 26.06 216.851 26.18C216.299 26.3 215.795 26.384 215.339 26.432C214.883 26.48 214.583 26.504 214.439 26.504ZM239.538 26.576C238.386 26.576 237.474 26.24 236.802 25.568C236.13 24.896 235.89 23.84 236.082 22.4L237.45 12.14H236.514C235.986 12.14 235.722 11.9 235.722 11.42C235.722 11.132 235.89 10.724 236.226 10.196C236.586 9.644 237.042 9.068 237.594 8.468C238.17 7.844 238.758 7.256 239.358 6.704C239.982 6.152 240.57 5.696 241.122 5.336C241.674 4.976 242.118 4.796 242.454 4.796C242.838 4.796 243.114 4.928 243.282 5.192C243.474 5.432 243.546 5.804 243.498 6.308L243.21 8.9H246.702C247.062 8.9 247.266 8.96 247.314 9.08C247.362 9.2 247.35 9.392 247.278 9.656C246.966 10.64 246.678 11.3 246.414 11.636C246.174 11.972 245.718 12.14 245.046 12.14H242.706L241.842 19.124C241.794 19.58 241.746 20.012 241.698 20.42C241.674 20.828 241.662 21.2 241.662 21.536C241.662 21.848 241.734 22.124 241.878 22.364C242.046 22.58 242.346 22.688 242.778 22.688C243.33 22.688 243.81 22.568 244.218 22.328C244.65 22.088 244.974 21.968 245.19 21.968C245.526 21.968 245.694 22.148 245.694 22.508C245.694 22.82 245.562 23.204 245.298 23.66C245.034 24.116 244.638 24.572 244.11 25.028C243.606 25.46 242.97 25.82 242.202 26.108C241.434 26.42 240.546 26.576 239.538 26.576ZM254.474 26.54C252.146 26.54 250.358 25.964 249.11 24.812C247.862 23.636 247.238 21.932 247.238 19.7C247.238 18.068 247.49 16.568 247.994 15.2C248.498 13.808 249.206 12.596 250.118 11.564C251.03 10.532 252.086 9.74 253.286 9.188C254.486 8.612 255.77 8.324 257.138 8.324C259.418 8.324 261.182 8.912 262.43 10.088C263.702 11.264 264.338 12.956 264.338 15.164C264.338 16.796 264.086 18.308 263.582 19.7C263.078 21.068 262.37 22.268 261.458 23.3C260.57 24.332 259.526 25.136 258.326 25.712C257.15 26.264 255.866 26.54 254.474 26.54ZM255.05 23.84C255.722 23.84 256.334 23.492 256.886 22.796C257.438 22.1 257.882 21.14 258.218 19.916C258.578 18.668 258.758 17.216 258.758 15.56C258.758 14.072 258.53 12.944 258.074 12.176C257.618 11.408 257.066 11.024 256.418 11.024C255.77 11.024 255.17 11.372 254.618 12.068C254.066 12.764 253.622 13.736 253.286 14.984C252.974 16.208 252.818 17.648 252.818 19.304C252.818 20.768 253.022 21.896 253.43 22.688C253.862 23.456 254.402 23.84 255.05 23.84ZM278.695 26.576C276.679 26.576 275.107 26.288 273.979 25.712C272.851 25.112 272.287 24.236 272.287 23.084C272.287 22.292 272.395 21.68 272.611 21.248C272.827 20.792 273.079 20.564 273.367 20.564C273.583 20.564 273.799 20.624 274.015 20.744C274.231 20.864 274.531 21.068 274.915 21.356C275.323 21.644 275.815 21.956 276.391 22.292C276.967 22.628 277.555 22.916 278.155 23.156C278.779 23.396 279.331 23.516 279.811 23.516C280.315 23.516 280.747 23.396 281.107 23.156C281.467 22.916 281.647 22.556 281.647 22.076C281.647 21.74 281.551 21.44 281.359 21.176C281.167 20.912 280.783 20.612 280.207 20.276L277.471 18.656C276.439 18.032 275.635 17.336 275.059 16.568C274.483 15.776 274.195 14.852 274.195 13.796C274.195 12.164 274.795 10.856 275.995 9.872C277.195 8.864 279.043 8.36 281.539 8.36C283.075 8.36 284.263 8.504 285.103 8.792C285.943 9.08 286.363 9.608 286.363 10.376C286.363 11.144 286.231 11.816 285.967 12.392C285.727 12.968 285.403 13.256 284.995 13.256C284.851 13.256 284.695 13.22 284.527 13.148C284.359 13.076 284.191 13.004 284.023 12.932C283.759 12.812 283.411 12.62 282.979 12.356C282.547 12.092 282.091 11.852 281.611 11.636C281.155 11.42 280.711 11.312 280.279 11.312C279.823 11.312 279.475 11.444 279.235 11.708C279.019 11.948 278.911 12.224 278.911 12.536C278.911 12.896 279.007 13.208 279.199 13.472C279.415 13.736 279.859 14 280.531 14.264L282.943 15.236C284.263 15.764 285.223 16.436 285.823 17.252C286.447 18.068 286.759 19.04 286.759 20.168C286.759 21.536 286.387 22.7 285.643 23.66C284.899 24.62 283.915 25.352 282.691 25.856C281.467 26.336 280.135 26.576 278.695 26.576ZM292.475 26.468C291.539 26.468 290.723 26.204 290.027 25.676C289.331 25.124 288.983 24.26 288.983 23.084C288.983 22.724 288.983 22.388 288.983 22.076C289.007 21.764 289.043 21.38 289.091 20.924C289.163 20.468 289.247 19.844 289.343 19.052L290.711 8.324H293.951C294.359 8.324 294.743 8.564 295.103 9.044C295.487 9.5 295.679 10.064 295.679 10.736C295.679 11.24 295.643 11.9 295.571 12.716C295.499 13.532 295.391 14.432 295.247 15.416L294.779 18.548C294.683 19.22 294.611 19.76 294.563 20.168C294.515 20.552 294.491 20.912 294.491 21.248C294.491 21.488 294.515 21.716 294.563 21.932C294.635 22.124 294.779 22.22 294.995 22.22C295.283 22.22 295.655 21.98 296.111 21.5C296.591 21.02 297.083 20.384 297.587 19.592C298.115 18.8 298.607 17.948 299.063 17.036C299.519 16.1 299.891 15.188 300.179 14.3C300.467 13.412 300.611 12.632 300.611 11.96C300.611 11.408 300.539 10.952 300.395 10.592C300.275 10.208 300.227 9.896 300.251 9.656C300.251 9.44 300.443 9.248 300.827 9.08C301.211 8.912 301.667 8.78 302.195 8.684C302.747 8.564 303.275 8.48 303.779 8.432C304.283 8.36 304.655 8.324 304.895 8.324C305.399 8.324 305.795 8.564 306.083 9.044C306.395 9.524 306.503 10.208 306.407 11.096L304.715 26.36H301.763C301.451 26.36 301.163 26.24 300.899 26C300.635 25.736 300.419 25.424 300.251 25.064C300.083 24.704 299.999 24.356 299.999 24.02C299.999 23.468 300.095 22.868 300.287 22.22C300.479 21.572 300.731 20.744 301.043 19.736C301.379 18.728 301.763 17.432 302.195 15.848V16.46C301.259 18.908 300.263 20.864 299.207 22.328C298.151 23.792 297.059 24.848 295.931 25.496C294.803 26.144 293.651 26.468 292.475 26.468ZM314.74 24.848L313.372 19.7C314.26 17.396 315.16 15.404 316.072 13.724C316.984 12.02 317.92 10.7 318.88 9.764C319.84 8.828 320.812 8.36 321.796 8.36C322.42 8.36 322.936 8.528 323.344 8.864C323.776 9.2 323.992 9.788 323.992 10.628C323.992 11.18 323.92 11.732 323.776 12.284C323.632 12.836 323.428 13.292 323.164 13.652C322.9 14.012 322.588 14.192 322.228 14.192C321.916 14.192 321.532 14.084 321.076 13.868C320.644 13.628 320.152 13.508 319.6 13.508C319.24 13.508 318.82 13.796 318.34 14.372C317.884 14.924 317.404 15.704 316.9 16.712C316.42 17.72 315.988 18.92 315.604 20.312C315.22 21.68 314.932 23.192 314.74 24.848ZM310.24 26.504C309.928 26.504 309.676 26.444 309.484 26.324C309.316 26.228 309.208 25.952 309.16 25.496C309.136 25.04 309.184 24.308 309.304 23.3L310.996 8.324H314.524C315.172 8.324 315.628 8.588 315.892 9.116C316.18 9.644 316.324 10.244 316.324 10.916C316.324 11.228 316.192 11.72 315.928 12.392C315.688 13.04 315.412 13.736 315.1 14.48C314.812 15.2 314.584 15.836 314.416 16.388L313.552 19.34L315.352 19.124L314.74 24.848C314.716 25.184 314.5 25.46 314.092 25.676C313.684 25.892 313.204 26.06 312.652 26.18C312.1 26.3 311.596 26.384 311.14 26.432C310.684 26.48 310.384 26.504 310.24 26.504ZM330.075 26.576C328.971 26.576 328.047 26.216 327.303 25.496C326.559 24.752 326.115 23.636 325.971 22.148L325.179 14.084C325.131 13.532 325.047 12.98 324.927 12.428C324.831 11.852 324.699 11.396 324.531 11.06C324.363 10.724 324.219 10.496 324.099 10.376C323.979 10.232 323.919 10.064 323.919 9.872C323.919 9.68 324.087 9.5 324.423 9.332C324.783 9.14 325.215 8.972 325.719 8.828C326.223 8.66 326.739 8.54 327.267 8.468C327.795 8.372 328.239 8.324 328.599 8.324C329.151 8.324 329.559 8.552 329.823 9.008C330.087 9.464 330.291 10.364 330.435 11.708L331.443 20.852C331.515 21.548 331.599 22.04 331.695 22.328C331.815 22.616 331.995 22.76 332.235 22.76C332.355 22.76 332.583 22.568 332.919 22.184C333.255 21.8 333.615 21.2 333.999 20.384C334.407 19.568 334.743 18.524 335.007 17.252C335.295 15.98 335.439 14.456 335.439 12.68C335.439 12.104 335.355 11.66 335.187 11.348C335.043 11.036 334.971 10.76 334.971 10.52C334.971 10.256 335.139 9.992 335.475 9.728C335.811 9.464 336.231 9.224 336.735 9.008C337.239 8.792 337.731 8.624 338.211 8.504C338.715 8.384 339.123 8.324 339.435 8.324C339.795 8.324 340.155 8.42 340.515 8.612C340.875 8.804 341.055 9.308 341.055 10.124C341.055 11.228 340.875 12.5 340.515 13.94C340.179 15.356 339.687 16.808 339.039 18.296C338.391 19.76 337.611 21.128 336.699 22.4C335.811 23.648 334.803 24.656 333.675 25.424C332.571 26.192 331.371 26.576 330.075 26.576ZM348.495 26.576C346.647 26.576 345.123 26 343.923 24.848C342.747 23.672 342.159 22.064 342.159 20.024C342.159 18.32 342.423 16.76 342.951 15.344C343.479 13.928 344.211 12.692 345.147 11.636C346.107 10.58 347.199 9.764 348.423 9.188C349.671 8.612 350.991 8.324 352.383 8.324C353.919 8.324 355.215 8.684 356.271 9.404C357.327 10.1 357.855 11.12 357.855 12.464C357.855 13.76 357.363 14.9 356.379 15.884C355.419 16.868 354.075 17.72 352.347 18.44C350.619 19.136 348.615 19.724 346.335 20.204L345.867 17.684C347.019 17.54 348.075 17.276 349.035 16.892C350.019 16.484 350.823 15.956 351.447 15.308C352.071 14.66 352.407 13.916 352.455 13.076C352.503 12.5 352.419 12.02 352.203 11.636C351.987 11.228 351.663 11.024 351.231 11.024C350.703 11.024 350.163 11.372 349.611 12.068C349.083 12.764 348.639 13.688 348.279 14.84C347.919 15.992 347.739 17.24 347.739 18.584C347.739 19.808 347.883 20.792 348.171 21.536C348.459 22.256 349.095 22.616 350.079 22.616C351.063 22.616 352.011 22.424 352.923 22.04C353.859 21.632 354.627 21.236 355.227 20.852C355.419 20.732 355.611 20.624 355.803 20.528C355.995 20.408 356.163 20.348 356.307 20.348C356.475 20.348 356.607 20.42 356.703 20.564C356.799 20.684 356.847 20.84 356.847 21.032C356.847 21.464 356.667 21.992 356.307 22.616C355.947 23.24 355.407 23.852 354.687 24.452C353.991 25.052 353.127 25.556 352.095 25.964C351.063 26.372 349.863 26.576 348.495 26.576ZM364.62 33.956C363.132 33.956 361.956 33.74 361.092 33.308C360.228 32.876 359.616 32.288 359.256 31.544C358.896 30.8 358.716 29.948 358.716 28.988C358.716 28.508 358.812 28.136 359.004 27.872C359.196 27.632 359.376 27.512 359.544 27.512C359.736 27.512 359.904 27.584 360.048 27.728C360.192 27.896 360.408 28.076 360.696 28.268C361.152 28.556 361.692 28.868 362.316 29.204C362.94 29.54 363.6 29.828 364.296 30.068C364.992 30.308 365.652 30.428 366.276 30.428C366.636 30.428 367.032 30.284 367.464 29.996C367.896 29.708 368.34 29.132 368.796 28.268C369.276 27.404 369.744 26.108 370.2 24.38L372.324 16.172H372.504C371.664 18.524 370.704 20.468 369.624 22.004C368.544 23.516 367.38 24.632 366.132 25.352C364.908 26.072 363.66 26.432 362.388 26.432C361.38 26.432 360.636 26.156 360.156 25.604C359.676 25.052 359.436 24.284 359.436 23.3C359.436 22.82 359.46 22.292 359.508 21.716C359.58 21.14 359.688 20.24 359.832 19.016L361.164 8.324H364.404C364.812 8.324 365.196 8.564 365.556 9.044C365.94 9.5 366.132 10.064 366.132 10.736C366.132 11.072 366.108 11.48 366.06 11.96C366.036 12.44 365.988 12.98 365.916 13.58C365.868 14.156 365.796 14.768 365.7 15.416L365.232 18.548C365.136 19.22 365.064 19.76 365.016 20.168C364.968 20.552 364.944 20.912 364.944 21.248C364.944 21.488 364.968 21.716 365.016 21.932C365.088 22.124 365.232 22.22 365.448 22.22C365.736 22.22 366.108 21.98 366.564 21.5C367.02 21.02 367.5 20.396 368.004 19.628C368.508 18.86 368.976 18.032 369.408 17.144C369.864 16.256 370.236 15.392 370.524 14.552C370.812 13.688 370.956 12.956 370.956 12.356C370.956 11.948 370.944 11.516 370.92 11.06C370.896 10.58 370.884 10.22 370.884 9.98C370.884 9.668 371.124 9.392 371.604 9.152C372.084 8.912 372.672 8.72 373.368 8.576C374.064 8.408 374.724 8.324 375.348 8.324C375.852 8.324 376.224 8.564 376.464 9.044C376.728 9.524 376.812 10.208 376.716 11.096C376.692 11.504 376.644 12.02 376.572 12.644C376.5 13.268 376.416 13.928 376.32 14.624L375.096 24.92C374.904 26.576 374.46 27.98 373.764 29.132C373.068 30.284 372.216 31.208 371.208 31.904C370.224 32.624 369.156 33.14 368.004 33.452C366.852 33.788 365.724 33.956 364.62 33.956ZM384.832 26.576C382.816 26.576 381.244 26.288 380.116 25.712C378.988 25.112 378.424 24.236 378.424 23.084C378.424 22.292 378.532 21.68 378.748 21.248C378.964 20.792 379.216 20.564 379.504 20.564C379.72 20.564 379.936 20.624 380.152 20.744C380.368 20.864 380.668 21.068 381.052 21.356C381.46 21.644 381.952 21.956 382.528 22.292C383.104 22.628 383.692 22.916 384.292 23.156C384.916 23.396 385.468 23.516 385.948 23.516C386.452 23.516 386.884 23.396 387.244 23.156C387.604 22.916 387.784 22.556 387.784 22.076C387.784 21.74 387.688 21.44 387.496 21.176C387.304 20.912 386.92 20.612 386.344 20.276L383.608 18.656C382.576 18.032 381.772 17.336 381.196 16.568C380.62 15.776 380.332 14.852 380.332 13.796C380.332 12.164 380.932 10.856 382.132 9.872C383.332 8.864 385.18 8.36 387.676 8.36C389.212 8.36 390.4 8.504 391.24 8.792C392.08 9.08 392.5 9.608 392.5 10.376C392.5 11.144 392.368 11.816 392.104 12.392C391.864 12.968 391.54 13.256 391.132 13.256C390.988 13.256 390.832 13.22 390.664 13.148C390.496 13.076 390.328 13.004 390.16 12.932C389.896 12.812 389.548 12.62 389.116 12.356C388.684 12.092 388.228 11.852 387.748 11.636C387.292 11.42 386.848 11.312 386.416 11.312C385.96 11.312 385.612 11.444 385.372 11.708C385.156 11.948 385.048 12.224 385.048 12.536C385.048 12.896 385.144 13.208 385.336 13.472C385.552 13.736 385.996 14 386.668 14.264L389.08 15.236C390.4 15.764 391.36 16.436 391.96 17.252C392.584 18.068 392.896 19.04 392.896 20.168C392.896 21.536 392.524 22.7 391.78 23.66C391.036 24.62 390.052 25.352 388.828 25.856C387.604 26.336 386.272 26.576 384.832 26.576Z" fill="black"/>
</svg>
