<svg width="217" height="34" viewBox="0 0 217 34" fill="none" xmlns="http://www.w3.org/2000/svg">
<path d="M2.24164 26.288C1.80964 26.288 1.47364 26.048 1.23364 25.568C1.01764 25.088 0.909641 24.524 0.909641 23.876C0.909641 22.94 1.01764 21.416 1.23364 19.304L3.03364 1.52C4.32964 1.4 5.73364 1.316 7.24564 1.268C8.78164 1.196 10.1016 1.16 11.2056 1.16C15.1416 1.16 18.2136 2.084 20.4216 3.932C22.6296 5.756 23.7336 8.312 23.7336 11.6C23.7336 14.384 23.1216 16.868 21.8976 19.052C20.6976 21.212 18.9216 22.916 16.5696 24.164C14.2416 25.388 11.3976 26 8.03764 26C7.07764 26 6.05764 26.048 4.97764 26.144C3.92164 26.24 3.00964 26.288 2.24164 26.288ZM7.10164 22.904C9.26164 22.904 11.0976 22.436 12.6096 21.5C14.1456 20.564 15.3096 19.28 16.1016 17.648C16.9176 16.016 17.3256 14.144 17.3256 12.032C17.3256 9.56 16.7016 7.616 15.4536 6.2C14.2296 4.784 12.2976 4.076 9.65764 4.076H8.75764L7.13764 19.88C7.11364 20.288 7.08964 20.756 7.06564 21.284C7.06564 21.812 7.07764 22.352 7.10164 22.904ZM31.1224 24.848L29.7544 19.7C30.6424 17.396 31.5424 15.404 32.4544 13.724C33.3664 12.02 34.3024 10.7 35.2624 9.764C36.2224 8.828 37.1944 8.36 38.1784 8.36C38.8024 8.36 39.3184 8.528 39.7264 8.864C40.1584 9.2 40.3744 9.788 40.3744 10.628C40.3744 11.18 40.3024 11.732 40.1584 12.284C40.0144 12.836 39.8104 13.292 39.5464 13.652C39.2824 14.012 38.9704 14.192 38.6104 14.192C38.2984 14.192 37.9144 14.084 37.4584 13.868C37.0264 13.628 36.5344 13.508 35.9824 13.508C35.6224 13.508 35.2024 13.796 34.7224 14.372C34.2664 14.924 33.7864 15.704 33.2824 16.712C32.8024 17.72 32.3704 18.92 31.9864 20.312C31.6024 21.68 31.3144 23.192 31.1224 24.848ZM26.6224 26.504C26.3104 26.504 26.0584 26.444 25.8664 26.324C25.6984 26.228 25.5904 25.952 25.5424 25.496C25.5184 25.04 25.5664 24.308 25.6864 23.3L27.3784 8.324H30.9064C31.5544 8.324 32.0104 8.588 32.2744 9.116C32.5624 9.644 32.7064 10.244 32.7064 10.916C32.7064 11.228 32.5744 11.72 32.3104 12.392C32.0704 13.04 31.7944 13.736 31.4824 14.48C31.1944 15.2 30.9664 15.836 30.7984 16.388L29.9344 19.34L31.7344 19.124L31.1224 24.848C31.0984 25.184 30.8824 25.46 30.4744 25.676C30.0664 25.892 29.5864 26.06 29.0344 26.18C28.4824 26.3 27.9784 26.384 27.5224 26.432C27.0664 26.48 26.7664 26.504 26.6224 26.504ZM44.4781 26.576C43.1341 26.576 42.0781 26.024 41.3101 24.92C40.5661 23.792 40.1941 22.268 40.1941 20.348C40.1941 18.596 40.4701 16.988 41.0221 15.524C41.5981 14.06 42.3661 12.8 43.3261 11.744C44.3101 10.664 45.4141 9.836 46.6381 9.26C47.8621 8.66 49.1341 8.36 50.4541 8.36C51.4861 8.36 52.4221 8.504 53.2621 8.792C54.1261 9.056 54.8581 9.332 55.4581 9.62L54.4141 14.444C53.7901 14.012 53.0941 13.568 52.3261 13.112C51.5581 12.632 50.8141 12.236 50.0941 11.924C49.3741 11.588 48.7621 11.42 48.2581 11.42C47.7781 11.42 47.3221 11.804 46.8901 12.572C46.4821 13.34 46.1461 14.312 45.8821 15.488C45.6421 16.64 45.5221 17.828 45.5221 19.052C45.5221 20.108 45.5821 20.996 45.7021 21.716C45.8221 22.412 46.0381 22.76 46.3501 22.76C46.6141 22.76 47.0581 22.448 47.6821 21.824C48.3301 21.176 49.1341 20.06 50.0941 18.476C51.0541 16.892 52.1221 14.684 53.2981 11.852L54.7021 15.308C53.4061 18.188 52.1701 20.456 50.9941 22.112C49.8181 23.744 48.6901 24.896 47.6101 25.568C46.5541 26.24 45.5101 26.576 44.4781 26.576ZM53.6581 26.36C52.8901 26.36 52.3741 26.192 52.1101 25.856C51.8461 25.52 51.7141 25.088 51.7141 24.56C51.7141 24.152 51.7621 23.624 51.8581 22.976C51.9781 22.304 52.1221 21.584 52.2901 20.816C52.4581 20.048 52.6381 19.328 52.8301 18.656L53.6221 15.956L52.3981 15.02L53.2621 9.584C54.0301 9.464 54.7621 9.308 55.4581 9.116C56.1781 8.924 56.8141 8.756 57.3661 8.612C57.9181 8.468 58.3261 8.396 58.5901 8.396C59.0461 8.396 59.2741 8.636 59.2741 9.116C59.2741 9.332 59.1181 9.86 58.8061 10.7C58.5181 11.54 58.2061 12.608 57.8701 13.904C57.5341 15.176 57.2821 16.604 57.1141 18.188L56.3221 26.36H53.6581ZM76.7127 26.576C75.6087 26.576 74.7567 26.18 74.1567 25.388C73.5567 24.596 73.2567 23.54 73.2567 22.22C73.2327 21.836 73.2087 21.44 73.1847 21.032C73.1847 20.624 73.2207 19.916 73.2927 18.908L71.7807 18.872L71.6367 14.984C71.6127 14.48 71.5527 13.976 71.4567 13.472C71.3847 12.944 71.2887 12.464 71.1687 12.032C71.0487 11.6 70.9287 11.264 70.8087 11.024C70.6407 10.664 70.4967 10.424 70.3767 10.304C70.2567 10.16 70.1967 9.992 70.1967 9.8C70.1967 9.608 70.3647 9.428 70.7007 9.26C71.0607 9.092 71.4927 8.936 71.9967 8.792C72.5247 8.648 73.0407 8.54 73.5447 8.468C74.0727 8.372 74.5047 8.324 74.8407 8.324C75.4407 8.324 75.9087 8.54 76.2447 8.972C76.5807 9.38 76.7967 10.292 76.8927 11.708L77.6127 21.212C77.6607 21.74 77.7327 22.136 77.8287 22.4C77.9247 22.64 78.0687 22.76 78.2607 22.76C78.6207 22.76 78.9927 22.352 79.3767 21.536C79.7847 20.696 80.1207 19.616 80.3847 18.296C80.6727 16.952 80.8167 15.512 80.8167 13.976C80.8167 12.992 80.6847 12.26 80.4207 11.78C80.1807 11.3 80.0607 10.904 80.0607 10.592C80.0607 10.328 80.2407 10.064 80.6007 9.8C80.9607 9.536 81.3927 9.296 81.8967 9.08C82.4007 8.864 82.8927 8.684 83.3727 8.54C83.8767 8.396 84.2487 8.324 84.4887 8.324C84.8727 8.324 85.1847 8.432 85.4247 8.648C85.6647 8.84 85.7847 9.284 85.7847 9.98C85.7847 12.428 85.4967 14.672 84.9207 16.712C84.3687 18.728 83.6247 20.48 82.6887 21.968C81.7767 23.432 80.7927 24.572 79.7367 25.388C78.7047 26.18 77.6967 26.576 76.7127 26.576ZM66.9567 26.576C65.7567 26.576 64.7847 26.192 64.0407 25.424C63.2967 24.656 62.8287 23.252 62.6367 21.212L61.9887 14.084C61.9407 13.532 61.8567 12.98 61.7367 12.428C61.6167 11.852 61.4727 11.396 61.3047 11.06C61.1367 10.724 60.9927 10.496 60.8727 10.376C60.7527 10.232 60.6927 10.064 60.6927 9.872C60.6927 9.68 60.8607 9.5 61.1967 9.332C61.5327 9.14 61.9407 8.972 62.4207 8.828C62.9247 8.66 63.4167 8.54 63.8967 8.468C64.4007 8.372 64.8087 8.324 65.1207 8.324C65.6007 8.324 66.0327 8.552 66.4167 9.008C66.8247 9.464 67.1007 10.364 67.2447 11.708L68.1087 19.844C68.2287 20.804 68.3367 21.536 68.4327 22.04C68.5287 22.52 68.6967 22.76 68.9367 22.76C69.1767 22.76 69.5127 22.472 69.9447 21.896C70.3767 21.32 70.7607 20.456 71.0967 19.304C71.4567 18.152 71.6367 16.712 71.6367 14.984L73.7967 17.684C73.5567 19.964 73.0647 21.752 72.3207 23.048C71.6007 24.344 70.7607 25.256 69.8007 25.784C68.8407 26.312 67.8927 26.576 66.9567 26.576ZM107.323 26.576C104.923 26.576 102.799 26.18 100.951 25.388C99.1271 24.572 97.6991 23.36 96.6671 21.752C95.6351 20.144 95.1191 18.164 95.1191 15.812C95.1191 13.652 95.4911 11.672 96.2351 9.872C96.9791 8.048 98.0111 6.476 99.3311 5.156C100.675 3.812 102.247 2.78 104.047 2.06C105.871 1.316 107.851 0.943999 109.987 0.943999C112.099 0.943999 113.707 1.184 114.811 1.664C115.939 2.12 116.503 3.008 116.503 4.328C116.503 5 116.359 5.6 116.071 6.128C115.783 6.632 115.459 6.884 115.099 6.884C114.883 6.884 114.547 6.752 114.091 6.488C113.635 6.2 113.251 5.96 112.939 5.768C112.363 5.384 111.727 5 111.031 4.616C110.335 4.208 109.543 4.004 108.655 4.004C107.215 4.004 105.955 4.46 104.875 5.372C103.819 6.26 102.991 7.544 102.391 9.224C101.815 10.88 101.527 12.86 101.527 15.164C101.527 17.3 101.899 18.968 102.643 20.168C103.411 21.344 104.479 22.172 105.847 22.652C107.239 23.132 108.859 23.372 110.707 23.372L112.039 11.456H115.567C116.263 11.456 116.731 11.576 116.971 11.816C117.235 12.032 117.367 12.464 117.367 13.112C117.367 13.256 117.367 13.4 117.367 13.544C117.367 13.688 117.355 13.832 117.331 13.976L116.215 23.264C116.119 23.96 115.975 24.572 115.783 25.1C115.615 25.628 115.291 25.928 114.811 26C113.515 26.192 112.207 26.336 110.887 26.432C109.591 26.528 108.403 26.576 107.323 26.576ZM121.703 26.576C121.247 26.576 120.863 26.252 120.551 25.604C120.263 24.932 120.119 24.188 120.119 23.372C120.119 22.82 120.131 22.304 120.155 21.824C120.203 21.344 120.275 20.696 120.371 19.88L121.667 8.324H125.339C125.939 8.324 126.359 8.588 126.599 9.116C126.839 9.644 126.959 10.244 126.959 10.916C126.959 11.252 126.935 11.612 126.887 11.996C126.839 12.356 126.767 12.92 126.671 13.688L125.987 19.556C125.867 20.732 125.747 21.74 125.627 22.58C125.507 23.42 125.399 24.164 125.303 24.812C125.231 25.436 125.159 26.024 125.087 26.576H121.703ZM124.871 7.136C124.031 7.136 123.299 6.848 122.675 6.272C122.075 5.696 121.775 4.952 121.775 4.04C121.775 2.936 122.123 2.084 122.819 1.484C123.539 0.859999 124.367 0.547999 125.303 0.547999C126.167 0.547999 126.887 0.799999 127.463 1.304C128.063 1.808 128.363 2.576 128.363 3.608C128.363 4.616 128.015 5.456 127.319 6.128C126.623 6.8 125.807 7.136 124.871 7.136ZM130.321 33.884C129.889 33.884 129.577 33.752 129.385 33.488C129.193 33.248 129.097 32.936 129.097 32.552C129.097 32.192 129.145 31.628 129.241 30.86L131.869 9.044C132.205 6.26 133.201 4.22 134.857 2.924C136.513 1.604 138.541 0.943999 140.941 0.943999C142.141 0.943999 143.041 1.112 143.641 1.448C144.241 1.76 144.541 2.288 144.541 3.032C144.541 3.44 144.481 3.884 144.361 4.364C144.265 4.82 144.121 5.216 143.929 5.552C143.737 5.888 143.485 6.056 143.173 6.056C142.981 6.056 142.693 5.876 142.309 5.516C141.925 5.132 141.493 4.76 141.013 4.4C140.557 4.016 140.077 3.824 139.573 3.824C139.021 3.824 138.601 4.196 138.313 4.94C138.049 5.684 137.845 6.716 137.701 8.036L136.513 18.512C136.345 19.928 136.201 21.368 136.081 22.832C135.961 24.272 135.841 25.616 135.721 26.864C135.649 27.464 135.433 28.16 135.073 28.952C134.713 29.744 134.257 30.512 133.705 31.256C133.177 32.024 132.613 32.648 132.013 33.128C131.413 33.632 130.849 33.884 130.321 33.884ZM130.321 12.14C130.153 12.14 130.033 12.08 129.961 11.96C129.889 11.84 129.877 11.696 129.925 11.528L130.537 9.8C130.657 9.464 130.825 9.236 131.041 9.116C131.281 8.972 131.725 8.9 132.373 8.9H141.013C141.325 8.9 141.421 9.092 141.301 9.476C140.989 10.388 140.689 11.06 140.401 11.492C140.113 11.924 139.657 12.14 139.033 12.14H130.321ZM146.256 26.576C145.104 26.576 144.192 26.24 143.52 25.568C142.848 24.896 142.608 23.84 142.8 22.4L144.168 12.14H143.232C142.704 12.14 142.44 11.9 142.44 11.42C142.44 11.132 142.608 10.724 142.944 10.196C143.304 9.644 143.76 9.068 144.312 8.468C144.888 7.844 145.476 7.256 146.076 6.704C146.7 6.152 147.288 5.696 147.84 5.336C148.392 4.976 148.836 4.796 149.172 4.796C149.556 4.796 149.832 4.928 150 5.192C150.192 5.432 150.264 5.804 150.216 6.308L149.928 8.9H153.42C153.78 8.9 153.984 8.96 154.032 9.08C154.08 9.2 154.068 9.392 153.996 9.656C153.684 10.64 153.396 11.3 153.132 11.636C152.892 11.972 152.436 12.14 151.764 12.14H149.424L148.56 19.124C148.512 19.58 148.464 20.012 148.416 20.42C148.392 20.828 148.38 21.2 148.38 21.536C148.38 21.848 148.452 22.124 148.596 22.364C148.764 22.58 149.064 22.688 149.496 22.688C150.048 22.688 150.528 22.568 150.936 22.328C151.368 22.088 151.692 21.968 151.908 21.968C152.244 21.968 152.412 22.148 152.412 22.508C152.412 22.82 152.28 23.204 152.016 23.66C151.752 24.116 151.356 24.572 150.828 25.028C150.324 25.46 149.688 25.82 148.92 26.108C148.152 26.42 147.264 26.576 146.256 26.576ZM156.649 26.576C156.193 26.576 155.809 26.252 155.497 25.604C155.209 24.932 155.065 24.188 155.065 23.372C155.065 22.82 155.077 22.304 155.101 21.824C155.149 21.344 155.221 20.696 155.317 19.88L156.613 8.324H160.285C160.885 8.324 161.305 8.588 161.545 9.116C161.785 9.644 161.905 10.244 161.905 10.916C161.905 11.252 161.881 11.612 161.833 11.996C161.785 12.356 161.713 12.92 161.617 13.688L160.933 19.556C160.813 20.732 160.693 21.74 160.573 22.58C160.453 23.42 160.345 24.164 160.249 24.812C160.177 25.436 160.105 26.024 160.033 26.576H156.649ZM159.817 7.136C158.977 7.136 158.245 6.848 157.621 6.272C157.021 5.696 156.721 4.952 156.721 4.04C156.721 2.936 157.069 2.084 157.765 1.484C158.485 0.859999 159.313 0.547999 160.249 0.547999C161.113 0.547999 161.833 0.799999 162.409 1.304C163.009 1.808 163.309 2.576 163.309 3.608C163.309 4.616 162.961 5.456 162.265 6.128C161.569 6.8 160.753 7.136 159.817 7.136ZM170.63 26.576C168.662 26.576 167.102 25.988 165.95 24.812C164.798 23.636 164.222 21.944 164.222 19.736C164.222 17.576 164.678 15.632 165.59 13.904C166.502 12.176 167.75 10.82 169.334 9.836C170.918 8.828 172.718 8.324 174.734 8.324C176.078 8.324 177.146 8.516 177.938 8.9C178.754 9.284 179.162 9.896 179.162 10.736C179.162 11.12 179.066 11.564 178.874 12.068C178.682 12.548 178.442 12.968 178.154 13.328C177.89 13.664 177.602 13.832 177.29 13.832C177.122 13.832 176.942 13.772 176.75 13.652C176.582 13.508 176.426 13.364 176.282 13.22C176.066 13.004 175.766 12.74 175.382 12.428C174.998 12.092 174.578 11.804 174.122 11.564C173.666 11.324 173.222 11.204 172.79 11.204C172.19 11.204 171.662 11.54 171.206 12.212C170.75 12.884 170.402 13.784 170.162 14.912C169.922 16.016 169.802 17.24 169.802 18.584C169.802 19.904 169.982 20.936 170.342 21.68C170.726 22.4 171.338 22.76 172.178 22.76C172.946 22.76 173.654 22.64 174.302 22.4C174.95 22.16 175.55 21.872 176.102 21.536C176.318 21.392 176.534 21.26 176.75 21.14C176.99 20.996 177.194 20.924 177.362 20.924C177.506 20.924 177.614 20.984 177.686 21.104C177.782 21.2 177.83 21.344 177.83 21.536C177.83 21.968 177.662 22.472 177.326 23.048C177.014 23.624 176.534 24.188 175.886 24.74C175.262 25.268 174.506 25.7 173.618 26.036C172.754 26.396 171.758 26.576 170.63 26.576ZM186.295 26.54C183.967 26.54 182.179 25.964 180.931 24.812C179.683 23.636 179.059 21.932 179.059 19.7C179.059 18.068 179.311 16.568 179.815 15.2C180.319 13.808 181.027 12.596 181.939 11.564C182.851 10.532 183.907 9.74 185.107 9.188C186.307 8.612 187.591 8.324 188.959 8.324C191.239 8.324 193.003 8.912 194.251 10.088C195.523 11.264 196.159 12.956 196.159 15.164C196.159 16.796 195.907 18.308 195.403 19.7C194.899 21.068 194.191 22.268 193.279 23.3C192.391 24.332 191.347 25.136 190.147 25.712C188.971 26.264 187.687 26.54 186.295 26.54ZM186.871 23.84C187.543 23.84 188.155 23.492 188.707 22.796C189.259 22.1 189.703 21.14 190.039 19.916C190.399 18.668 190.579 17.216 190.579 15.56C190.579 14.072 190.351 12.944 189.895 12.176C189.439 11.408 188.887 11.024 188.239 11.024C187.591 11.024 186.991 11.372 186.439 12.068C185.887 12.764 185.443 13.736 185.107 14.984C184.795 16.208 184.639 17.648 184.639 19.304C184.639 20.768 184.843 21.896 185.251 22.688C185.683 23.456 186.223 23.84 186.871 23.84ZM210.616 26.36C210.232 26.36 209.944 26.192 209.752 25.856C209.56 25.496 209.428 25.112 209.356 24.704C209.284 24.296 209.248 23.984 209.248 23.768C209.248 23.432 209.272 23.048 209.32 22.616C209.368 22.184 209.416 21.728 209.464 21.248C209.536 20.768 209.608 20.312 209.68 19.88L210.292 16.136C210.364 15.656 210.448 15.164 210.544 14.66C210.664 14.132 210.724 13.712 210.724 13.4C210.724 13.136 210.664 12.944 210.544 12.824C210.424 12.704 210.28 12.644 210.112 12.644C209.8 12.644 209.332 12.932 208.708 13.508C208.084 14.084 207.424 14.912 206.728 15.992C206.032 17.072 205.396 18.368 204.82 19.88C204.268 21.368 203.896 23.024 203.704 24.848L202.3 19.34C203.02 17.252 203.836 15.512 204.748 14.12C205.66 12.704 206.596 11.576 207.556 10.736C208.54 9.896 209.476 9.296 210.364 8.936C211.276 8.552 212.08 8.36 212.776 8.36C213.64 8.36 214.324 8.528 214.828 8.864C215.356 9.176 215.728 9.584 215.944 10.088C216.16 10.592 216.268 11.096 216.268 11.6C216.268 12.248 216.22 12.836 216.124 13.364C216.052 13.892 215.968 14.468 215.872 15.092L214.144 26.36H210.616ZM199.204 26.504C198.892 26.504 198.64 26.444 198.448 26.324C198.28 26.228 198.172 25.952 198.124 25.496C198.1 25.04 198.148 24.308 198.268 23.3L199.96 8.324H203.488C204.136 8.324 204.592 8.588 204.856 9.116C205.144 9.644 205.288 10.244 205.288 10.916C205.288 11.228 205.156 11.72 204.892 12.392C204.628 13.04 204.328 13.736 203.992 14.48C203.68 15.2 203.428 15.836 203.236 16.388L202.3 19.34L204.316 19.124L203.704 24.848C203.68 25.184 203.464 25.46 203.056 25.676C202.648 25.892 202.168 26.06 201.616 26.18C201.064 26.3 200.56 26.384 200.104 26.432C199.648 26.48 199.348 26.504 199.204 26.504Z" fill="black"/>
</svg>
