<svg width="287" height="44" viewBox="0 0 287 44" fill="none" xmlns="http://www.w3.org/2000/svg">
<path d="M36.3006 0.65625H37.3006V-0.34375H36.3006V0.65625ZM36.3006 43.3125V44.3125H37.3006V43.3125H36.3006ZM30.2538 43.3125H29.2538V44.3125H30.2538V43.3125ZM30.2538 0.65625V-0.34375H29.2538V0.65625H30.2538ZM0.581879 31.2188L0.154785 30.3145L-0.885683 30.806L-0.253934 31.7678L0.581879 31.2188ZM17.41 9.79688L18.4049 9.89784L18.5166 8.79688H17.41V9.79688ZM2.87875 9.79688H1.87875V10.7969H2.87875V9.79688ZM2.87875 5.10938V4.10938H1.87875V5.10938H2.87875ZM23.5038 5.10938L24.5038 5.11119L24.5056 4.10938H23.5038V5.10938ZM3.7225 36L2.88669 36.549L3.36379 37.2753L4.14957 36.9042L3.7225 36ZM35.3006 0.65625V43.3125H37.3006V0.65625H35.3006ZM36.3006 42.3125H30.2538V44.3125H36.3006V42.3125ZM31.2538 43.3125V0.65625H29.2538V43.3125H31.2538ZM30.2538 1.65625H36.3006V-0.34375H30.2538V1.65625ZM1.00897 32.123C6.61346 29.4757 10.725 26.3999 13.559 22.7173C16.4002 19.0252 17.9088 14.786 18.4049 9.89784L16.4151 9.69591C15.9503 14.2765 14.5526 18.1467 11.9739 21.4976C9.38797 24.8579 5.56592 27.7586 0.154785 30.3145L1.00897 32.123ZM17.41 8.79688H2.87875V10.7969H17.41V8.79688ZM3.87875 9.79688V5.10938H1.87875V9.79688H3.87875ZM2.87875 6.10938H23.5038V4.10938H2.87875V6.10938ZM22.5038 5.10756C22.4922 11.4631 21.3754 17.197 18.4535 22.204C15.5362 27.2031 10.7673 31.5668 3.29543 35.0958L4.14957 36.9042C11.9121 33.2379 17.0221 28.625 20.1809 23.212C23.3352 17.8069 24.4918 11.6932 24.5038 5.11119L22.5038 5.10756ZM4.55832 35.451L1.41769 30.6697L-0.253934 31.7678L2.88669 36.549L4.55832 35.451ZM86.2525 33.375H87.2525V32.375H86.2525V33.375ZM86.2525 38.3438V39.3438H87.2525V38.3438H86.2525ZM47.2056 38.3438H46.2056V39.3438H47.2056V38.3438ZM47.2056 33.375V32.375H46.2056V33.375H47.2056ZM50.2525 9.1875H49.2525V10.1875H50.2525V9.1875ZM50.2525 4.40625V3.40625H49.2525V4.40625H50.2525ZM82.9713 4.40625H83.9713V3.40625H82.9713V4.40625ZM82.9713 9.1875V10.1875H83.9713V9.1875H82.9713ZM76.9713 9.1875V8.1875H75.9713V9.1875H76.9713ZM76.9713 22.125H75.9713V23.125H76.9713V22.125ZM82.7838 22.125H83.7838V21.125H82.7838V22.125ZM82.7838 26.8125V27.8125H83.7838V26.8125H82.7838ZM50.44 26.8125H49.44V27.8125H50.44V26.8125ZM50.44 22.125V21.125H49.44V22.125H50.44ZM56.1588 22.125V23.125H57.1588V22.125H56.1588ZM56.1588 9.1875H57.1588V8.1875H56.1588V9.1875ZM62.1588 22.125H61.1588V23.125H62.1588V22.125ZM71.065 22.125V23.125H72.065V22.125H71.065ZM71.065 9.1875H72.065V8.1875H71.065V9.1875ZM62.1588 9.1875V8.1875H61.1588V9.1875H62.1588ZM85.2525 33.375V38.3438H87.2525V33.375H85.2525ZM86.2525 37.3438H47.2056V39.3438H86.2525V37.3438ZM48.2056 38.3438V33.375H46.2056V38.3438H48.2056ZM47.2056 34.375H86.2525V32.375H47.2056V34.375ZM51.2525 9.1875V4.40625H49.2525V9.1875H51.2525ZM50.2525 5.40625H82.9713V3.40625H50.2525V5.40625ZM81.9713 4.40625V9.1875H83.9713V4.40625H81.9713ZM82.9713 8.1875H76.9713V10.1875H82.9713V8.1875ZM75.9713 9.1875V22.125H77.9713V9.1875H75.9713ZM76.9713 23.125H82.7838V21.125H76.9713V23.125ZM81.7838 22.125V26.8125H83.7838V22.125H81.7838ZM82.7838 25.8125H50.44V27.8125H82.7838V25.8125ZM51.44 26.8125V22.125H49.44V26.8125H51.44ZM50.44 23.125H56.1588V21.125H50.44V23.125ZM57.1588 22.125V9.1875H55.1588V22.125H57.1588ZM56.1588 8.1875H50.2525V10.1875H56.1588V8.1875ZM62.1588 23.125H71.065V21.125H62.1588V23.125ZM72.065 22.125V9.1875H70.065V22.125H72.065ZM71.065 8.1875H62.1588V10.1875H71.065V8.1875ZM61.1588 9.1875V22.125H63.1588V9.1875H61.1588ZM118.017 4.17188H119.017V3.17188H118.017V4.17188ZM118.017 9.04688V10.0469H119.017V9.04688H118.017ZM102.22 9.04688V8.04688H101.22V9.04688H102.22ZM102.22 16.0781H101.22V17.0781H102.22V16.0781ZM116.236 16.0781H117.236V15.0781H116.236V16.0781ZM116.236 20.7656V21.7656H117.236V20.7656H116.236ZM102.22 20.7656V19.7656H101.22V20.7656H102.22ZM102.22 28.8281H101.22V29.8353L102.227 29.8281L102.22 28.8281ZM119.939 27.6094L120.932 27.4937L120.812 26.4642L119.788 26.6209L119.939 27.6094ZM120.501 32.4375L120.647 33.4269L121.607 33.2859L121.495 32.3218L120.501 32.4375ZM96.3138 33.6094H95.3138V34.6094H96.3138V33.6094ZM96.3138 4.17188V3.17188H95.3138V4.17188H96.3138ZM123.783 43.3125H122.783V44.3125H123.783V43.3125ZM123.783 0.65625V-0.34375H122.783V0.65625H123.783ZM129.829 0.65625H130.829V-0.34375H129.829V0.65625ZM129.829 43.3125V44.3125H130.829V43.3125H129.829ZM117.017 4.17188V9.04688H119.017V4.17188H117.017ZM118.017 8.04688H102.22V10.0469H118.017V8.04688ZM101.22 9.04688V16.0781H103.22V9.04688H101.22ZM102.22 17.0781H116.236V15.0781H102.22V17.0781ZM115.236 16.0781V20.7656H117.236V16.0781H115.236ZM116.236 19.7656H102.22V21.7656H116.236V19.7656ZM101.22 20.7656V28.8281H103.22V20.7656H101.22ZM102.227 29.8281C108.792 29.781 114.048 29.522 120.09 28.5979L119.788 26.6209C113.877 27.5249 108.726 27.7815 102.213 27.8282L102.227 29.8281ZM118.945 27.7251L119.508 32.5532L121.495 32.3218L120.932 27.4937L118.945 27.7251ZM120.356 31.4481C113.726 32.4218 107.666 32.6094 99.97 32.6094V34.6094C107.696 34.6094 113.871 34.4219 120.647 33.4269L120.356 31.4481ZM99.97 32.6094H96.3138V34.6094H99.97V32.6094ZM97.3138 33.6094V4.17188H95.3138V33.6094H97.3138ZM96.3138 5.17188H118.017V3.17188H96.3138V5.17188ZM124.783 43.3125V0.65625H122.783V43.3125H124.783ZM123.783 1.65625H129.829V-0.34375H123.783V1.65625ZM128.829 0.65625V43.3125H130.829V0.65625H128.829ZM129.829 42.3125H123.783V44.3125H129.829V42.3125ZM175.188 2.29688H176.188V1.29688H175.188V2.29688ZM173.969 20.3906L173.89 21.3875L174.762 21.4568L174.946 20.6007L173.969 20.3906ZM168.062 19.9219L167.086 19.7049L166.837 20.8277L167.983 20.9187L168.062 19.9219ZM168.906 14.6719L169.901 14.7728L170.018 13.6235L168.864 13.6728L168.906 14.6719ZM144.766 15.7031L143.777 15.8538L143.912 16.7405L144.808 16.7022L144.766 15.7031ZM144.016 10.7812L143.995 9.78146L142.855 9.80479L143.027 10.9319L144.016 10.7812ZM169.211 10.2656L169.231 11.2654L170.17 11.2462L170.21 10.3081L169.211 10.2656ZM169.281 7.03125L170.281 7.05298L170.303 6.03125H169.281V7.03125ZM145.188 7.03125H144.188V8.03125H145.188V7.03125ZM145.188 2.29688V1.29688H144.188V2.29688H145.188ZM140.828 27.2812H139.828V28.2812H140.828V27.2812ZM140.828 22.5469V21.5469H139.828V22.5469H140.828ZM155.312 22.5469V23.5469H156.312V22.5469H155.312ZM155.312 17.2031V16.2031H154.312V17.2031H155.312ZM161.312 17.2031H162.312V16.2031H161.312V17.2031ZM161.312 22.5469H160.312V23.5469H161.312V22.5469ZM179.547 22.5469H180.547V21.5469H179.547V22.5469ZM179.547 27.2812V28.2812H180.547V27.2812H179.547ZM145.328 42.6562H144.328V43.6562H145.328V42.6562ZM145.328 29.9062V28.9062H144.328V29.9062H145.328ZM151.328 29.9062H152.328V28.9062H151.328V29.9062ZM151.328 37.875H150.328V38.875H151.328V37.875ZM175.891 37.875H176.891V36.875H175.891V37.875ZM175.891 42.6562V43.6562H176.891V42.6562H175.891ZM174.188 2.29688V6.32812H176.188V2.29688H174.188ZM174.188 6.32812C174.188 10.515 174.186 14.6196 172.991 20.1805L174.946 20.6007C176.189 14.8179 176.188 10.5319 176.188 6.32812H174.188ZM174.048 19.3938L168.142 18.925L167.983 20.9187L173.89 21.3875L174.048 19.3938ZM169.039 20.1388C169.47 18.1977 169.734 16.4243 169.901 14.7728L167.911 14.5709C167.751 16.1539 167.499 17.8491 167.086 19.7049L169.039 20.1388ZM168.864 13.6728L144.723 14.704L144.808 16.7022L168.949 15.671L168.864 13.6728ZM145.754 15.5525L145.004 10.6306L143.027 10.9319L143.777 15.8538L145.754 15.5525ZM144.036 11.781L169.231 11.2654L169.19 9.26583L143.995 9.78146L144.036 11.781ZM170.21 10.3081C170.257 9.19456 170.258 8.10117 170.281 7.05298L168.281 7.00952C168.257 8.11758 168.258 9.13357 168.212 10.2231L170.21 10.3081ZM169.281 6.03125H145.188V8.03125H169.281V6.03125ZM146.188 7.03125V2.29688H144.188V7.03125H146.188ZM145.188 3.29688H175.188V1.29688H145.188V3.29688ZM141.828 27.2812V22.5469H139.828V27.2812H141.828ZM140.828 23.5469H155.312V21.5469H140.828V23.5469ZM156.312 22.5469V17.2031H154.312V22.5469H156.312ZM155.312 18.2031H161.312V16.2031H155.312V18.2031ZM160.312 17.2031V22.5469H162.312V17.2031H160.312ZM161.312 23.5469H179.547V21.5469H161.312V23.5469ZM178.547 22.5469V27.2812H180.547V22.5469H178.547ZM179.547 26.2812H140.828V28.2812H179.547V26.2812ZM146.328 42.6562V29.9062H144.328V42.6562H146.328ZM145.328 30.9062H151.328V28.9062H145.328V30.9062ZM150.328 29.9062V37.875H152.328V29.9062H150.328ZM151.328 38.875H175.891V36.875H151.328V38.875ZM174.891 37.875V42.6562H176.891V37.875H174.891ZM175.891 41.6562H145.328V43.6562H175.891V41.6562ZM242.747 26.2031H243.747V25.2031H242.747V26.2031ZM242.747 31.0781V32.0781H243.747V31.0781H242.747ZM226.201 31.0781V30.0781H225.201V31.0781H226.201ZM226.201 43.3594V44.3594H227.201V43.3594H226.201ZM220.294 43.3594H219.294V44.3594H220.294V43.3594ZM220.294 31.0781H221.294V30.0781H220.294V31.0781ZM203.841 31.0781H202.841V32.0781H203.841V31.0781ZM203.841 26.2031V25.2031H202.841V26.2031H203.841ZM205.81 19.2188L205.7 18.2249L204.322 18.3779L204.902 19.6367L205.81 19.2188ZM220.201 10.2656L221.183 10.4536L221.41 9.26562H220.201V10.2656ZM207.357 10.2656H206.357V11.2656H207.357V10.2656ZM207.357 5.57812V4.57812H206.357V5.57812H207.357ZM220.294 5.57812V6.57812H221.294V5.57812H220.294ZM220.294 0.703125V-0.296875H219.294V0.703125H220.294ZM226.201 0.703125H227.201V-0.296875H226.201V0.703125ZM226.201 5.57812H225.201V6.57812H226.201V5.57812ZM239.185 5.57812H240.185V4.57812H239.185V5.57812ZM239.185 10.2656V11.2656H240.185V10.2656H239.185ZM226.388 10.2656V9.26562H225.198L225.403 10.438L226.388 10.2656ZM240.685 19.2188L241.593 19.6367L242.172 18.3783L240.796 18.2249L240.685 19.2188ZM238.529 23.9062L238.416 24.8999L239.135 24.9813L239.437 24.3242L238.529 23.9062ZM223.294 16.2422L224.108 15.6605L223.293 14.521L222.48 15.6619L223.294 16.2422ZM207.966 23.9062L207.058 24.3242L207.36 24.9808L208.078 24.9L207.966 23.9062ZM241.747 26.2031V31.0781H243.747V26.2031H241.747ZM242.747 30.0781H226.201V32.0781H242.747V30.0781ZM225.201 31.0781V43.3594H227.201V31.0781H225.201ZM226.201 42.3594H220.294V44.3594H226.201V42.3594ZM221.294 43.3594V31.0781H219.294V43.3594H221.294ZM220.294 30.0781H203.841V32.0781H220.294V30.0781ZM204.841 31.0781V26.2031H202.841V31.0781H204.841ZM203.841 27.2031H242.747V25.2031H203.841V27.2031ZM205.92 20.2126C214.951 19.2092 220.333 14.895 221.183 10.4536L219.218 10.0777C218.615 13.23 214.387 17.2596 205.7 18.2249L205.92 20.2126ZM220.201 9.26562H207.357V11.2656H220.201V9.26562ZM208.357 10.2656V5.57812H206.357V10.2656H208.357ZM207.357 6.57812H220.294V4.57812H207.357V6.57812ZM221.294 5.57812V0.703125H219.294V5.57812H221.294ZM220.294 1.70312H226.201V-0.296875H220.294V1.70312ZM225.201 0.703125V5.57812H227.201V0.703125H225.201ZM226.201 6.57812H239.185V4.57812H226.201V6.57812ZM238.185 5.57812V10.2656H240.185V5.57812H238.185ZM239.185 9.26562H226.388V11.2656H239.185V9.26562ZM225.403 10.438C225.791 12.6534 227.366 14.8543 229.901 16.6025C232.449 18.3595 236.024 19.7057 240.574 20.2126L240.796 18.2249C236.51 17.7474 233.264 16.492 231.037 14.9561C228.797 13.4114 227.642 11.6278 227.373 10.0932L225.403 10.438ZM239.777 18.8008L237.62 23.4883L239.437 24.3242L241.593 19.6367L239.777 18.8008ZM238.641 22.9126C231.601 22.1152 226.667 19.2394 224.108 15.6605L222.481 16.8239C225.453 20.9793 230.972 24.0567 238.416 24.8999L238.641 22.9126ZM222.48 15.6619C219.901 19.2818 214.948 22.1142 207.854 22.9125L208.078 24.9C215.562 24.0577 221.11 21.0307 224.109 16.8225L222.48 15.6619ZM208.875 23.4883L206.718 18.8008L204.902 19.6367L207.058 24.3242L208.875 23.4883ZM266.309 9.75L265.309 9.75L265.309 9.75529L266.309 9.75ZM276.387 20.3438L277.254 20.8427L277.906 19.7091L276.641 19.3766L276.387 20.3438ZM273.715 24.9844L273.463 25.952L274.201 26.1445L274.582 25.4833L273.715 24.9844ZM263.403 17.5312L264.275 17.0421L263.349 15.3916L262.507 17.0863L263.403 17.5312ZM253.09 25.7344L252.235 26.2527L252.63 26.9044L253.363 26.6964L253.09 25.7344ZM250.278 21.0938L250.016 20.1286L248.734 20.4762L249.422 21.6121L250.278 21.0938ZM260.356 9.60938H261.356V8.60938H260.356V9.60938ZM251.778 9.60938H250.778V10.6094H251.778V9.60938ZM251.778 4.92188V3.92188H250.778V4.92188H251.778ZM260.356 4.92188V5.92188H261.356V4.92188H260.356ZM260.356 0.46875V-0.53125H259.356V0.46875H260.356ZM266.403 0.46875H267.403V-0.53125H266.403V0.46875ZM266.403 4.92188H265.403V5.92188H266.403V4.92188ZM274.934 4.92188H275.934V3.92188H274.934V4.92188ZM274.934 9.60938V10.6094H275.934V9.60938H274.934ZM266.309 9.60938V8.60938H265.309V9.60938H266.309ZM257.871 42.8438H256.871V43.8438H257.871V42.8438ZM257.871 27.4688V26.4688H256.871V27.4688H257.871ZM286.559 27.4688H287.559V26.4688H286.559V27.4688ZM286.559 42.8438V43.8438H287.559V42.8438H286.559ZM263.871 38.0625H262.871V39.0625H263.871V38.0625ZM280.699 38.0625V39.0625H281.699V38.0625H280.699ZM280.699 32.25H281.699V31.25H280.699V32.25ZM263.871 32.25V31.25H262.871V32.25H263.871ZM273.856 16.6875H272.856V17.6875H273.856V16.6875ZM273.856 11.8594V10.8594H272.856V11.8594H273.856ZM280.606 11.8594V12.8594H281.606V11.8594H280.606ZM280.606 0.65625V-0.34375H279.606V0.65625H280.606ZM286.559 0.65625H287.559V-0.34375H286.559V0.65625ZM286.559 25.6406V26.6406H287.559V25.6406H286.559ZM280.606 25.6406H279.606V26.6406H280.606V25.6406ZM280.606 16.6875H281.606V15.6875H280.606V16.6875ZM265.309 9.75529C265.335 14.7436 268.94 19.4207 276.133 21.3109L276.641 19.3766C270.099 17.6575 267.329 13.6157 267.309 9.74471L265.309 9.75529ZM275.52 19.8448L272.848 24.4854L274.582 25.4833L277.254 20.8427L275.52 19.8448ZM273.967 24.0167C269.255 22.7884 266.073 20.2478 264.275 17.0421L262.53 18.0204C264.623 21.7522 268.284 24.6022 273.463 25.952L273.967 24.0167ZM262.507 17.0863C260.763 20.597 257.596 23.4164 252.817 24.7723L253.363 26.6964C258.662 25.193 262.293 22.0124 264.298 17.9762L262.507 17.0863ZM253.945 25.2161L251.133 20.5754L249.422 21.6121L252.235 26.2527L253.945 25.2161ZM250.539 22.0589C257.827 20.0826 261.356 15.044 261.356 9.75H259.356C259.356 14.0185 256.556 18.3549 250.016 20.1286L250.539 22.0589ZM261.356 9.75V9.60938H259.356V9.75H261.356ZM260.356 8.60938H251.778V10.6094H260.356V8.60938ZM252.778 9.60938V4.92188H250.778V9.60938H252.778ZM251.778 5.92188H260.356V3.92188H251.778V5.92188ZM261.356 4.92188V0.46875H259.356V4.92188H261.356ZM260.356 1.46875H266.403V-0.53125H260.356V1.46875ZM265.403 0.46875V4.92188H267.403V0.46875H265.403ZM266.403 5.92188H274.934V3.92188H266.403V5.92188ZM273.934 4.92188V9.60938H275.934V4.92188H273.934ZM274.934 8.60938H266.309V10.6094H274.934V8.60938ZM265.309 9.60938V9.75H267.309V9.60938H265.309ZM258.871 42.8438V27.4688H256.871V42.8438H258.871ZM257.871 28.4688H286.559V26.4688H257.871V28.4688ZM285.559 27.4688V42.8438H287.559V27.4688H285.559ZM286.559 41.8438H257.871V43.8438H286.559V41.8438ZM263.871 39.0625H280.699V37.0625H263.871V39.0625ZM281.699 38.0625V32.25H279.699V38.0625H281.699ZM280.699 31.25H263.871V33.25H280.699V31.25ZM262.871 32.25V38.0625H264.871V32.25H262.871ZM274.856 16.6875V11.8594H272.856V16.6875H274.856ZM273.856 12.8594H280.606V10.8594H273.856V12.8594ZM281.606 11.8594V0.65625H279.606V11.8594H281.606ZM280.606 1.65625H286.559V-0.34375H280.606V1.65625ZM285.559 0.65625V25.6406H287.559V0.65625H285.559ZM286.559 24.6406H280.606V26.6406H286.559V24.6406ZM281.606 25.6406V16.6875H279.606V25.6406H281.606ZM280.606 15.6875H273.856V17.6875H280.606V15.6875Z" fill="black"/>
</svg>
