<svg width="400" height="200" viewBox="0 0 400 200" fill="none" xmlns="http://www.w3.org/2000/svg">
<path d="M230.007 105.998H216.434C212.231 105.998 209.462 111.362 211.255 116.023L237.898 185.073C239.778 189.945 245.259 190.508 247.784 186.093L345.362 14.6814C348.016 10.0206 345.29 3.63623 340.656 3.63623H327.399C325.533 3.63623 323.797 4.74427 322.721 6.60859L245.531 140.189L235.287 110.307C234.398 107.704 232.317 105.998 230.007 105.998Z" fill="url(#paint0_linear_371_2464)"/>
<path d="M6.8051 175.269C4.97074 175.217 3.51993 173.84 2.46934 171.156C1.41875 168.471 0.718352 165.167 0.384831 161.26C0.0513109 157.353 -0.0654214 153.481 0.0346348 149.66C0.184719 144.187 0.501564 138.835 1.00184 133.62C1.50213 128.405 2.00241 122.158 2.51936 114.861L11.3577 0L22.6473 0.326994C25.4489 0.413045 27.4 1.75544 28.4839 4.35419C29.5679 6.97014 30.0682 10.4982 29.9348 14.9901C29.8347 18.9657 29.6513 22.7519 29.3844 26.3144C29.1343 29.8769 28.8008 34.059 28.3839 38.8607C27.967 43.6795 27.4667 49.9613 26.8664 57.7575L17.7112 175.579L6.78843 175.269H6.8051Z" fill="black"/>
<path d="M41.6753 92.5567C40.2412 92.5567 39.2406 91.9027 38.6736 90.5775C38.1067 89.2523 37.8398 87.4797 37.8398 85.2423C37.8398 83.5902 37.9566 81.7315 38.2067 79.6662L45.8777 7.67587C48.9127 7.26282 52.1812 6.8842 55.6665 6.5572C59.1518 6.23021 63.0874 6.05811 67.4898 6.05811C75.7278 6.05811 82.2314 6.8842 87.0008 8.53638C91.7534 10.1886 95.172 12.4603 97.2065 15.3516C99.241 18.2429 100.275 21.5473 100.275 25.2647C100.275 29.8082 98.9575 33.8698 96.306 37.4668C93.6545 41.0637 90.2193 44.0066 85.9835 46.33L82.2648 48.4297C80.0969 49.4967 78.1792 50.3916 76.4949 51.0973C74.8106 51.8029 73.3765 52.1471 72.1758 52.1471C69.9412 52.1471 67.9901 51.5103 66.3559 50.2195C64.7216 48.946 63.8878 47.6724 63.8878 46.4333C63.8878 45.8654 64.0712 45.4179 64.4214 45.1253C64.7883 44.8327 65.2886 44.609 65.9223 44.4369C68.407 43.6969 70.8083 42.5954 73.1263 41.1498C75.4443 39.7041 77.3454 37.811 78.8295 35.4532C80.3137 33.0954 81.0474 30.1868 81.0474 26.7104C81.0474 22.5799 79.4465 19.7747 76.2447 18.2774C73.0429 16.7973 68.9573 16.04 64.0045 16.04L58.368 71.8012C58.2847 72.6273 58.2346 73.4361 58.1846 74.2106C58.1512 75.0023 58.1179 75.7939 58.1179 76.62C58.1179 77.5322 58.1346 78.255 58.1846 78.7885C58.2179 79.322 58.2847 80.0449 58.368 80.957C65.7388 80.957 71.5421 79.5458 75.7778 76.7405C80.0135 73.9352 82.148 69.3917 82.148 63.11C82.148 59.6335 81.3309 56.7078 79.68 54.3156C78.0457 51.9233 76.3781 50.0991 74.6939 48.8599L83.4655 44.0239C87.0675 45.0221 90.336 46.5193 93.2543 48.5501C96.1726 50.581 98.4906 52.9904 100.225 55.7957C101.942 58.6009 102.81 61.6643 102.81 64.9687C102.81 70.2522 101.576 74.8818 99.0909 78.8401C96.6062 82.7985 92.704 85.8963 87.3843 88.1337C82.0647 90.371 75.1608 91.4725 66.6727 91.4725C65.0718 91.4725 63.054 91.5069 60.6026 91.5929C58.1679 91.679 55.6665 91.7994 53.0984 91.9715C50.5303 92.1436 48.2123 92.2641 46.1278 92.3502C44.0433 92.4362 42.5592 92.4706 41.692 92.4706L41.6753 92.5567Z" fill="black"/>
<path d="M127.54 92.5567C121.37 92.5567 116.317 90.5603 112.348 86.5503C108.379 82.5403 106.412 77.0331 106.412 70.0113C106.412 64.1426 107.295 58.773 109.046 53.9025C110.814 49.032 113.265 44.7811 116.434 41.1325C119.602 37.5012 123.238 34.6959 127.357 32.6995C131.476 30.7204 135.861 29.7222 140.497 29.7222C145.617 29.7222 149.936 30.9441 153.471 33.3707C156.99 35.8146 158.758 39.3427 158.758 43.9722C158.758 48.6018 157.14 52.3536 153.888 55.744C150.653 59.1344 146.151 62.043 140.381 64.4868C134.611 66.9307 127.94 68.9615 120.336 70.6137L118.769 61.9397C122.604 61.4406 126.156 60.5113 129.391 59.1516C132.626 57.792 135.294 55.985 137.379 53.7648C139.464 51.5275 140.581 48.9804 140.748 46.0891C140.914 44.1099 140.631 42.4405 139.914 41.0637C139.197 39.7041 138.113 39.0157 136.679 39.0157C134.911 39.0157 133.143 40.2204 131.342 42.6126C129.541 45.0048 128.04 48.1887 126.84 52.1471C125.639 56.1054 125.039 60.408 125.039 65.0375C125.039 69.2541 125.522 72.61 126.473 75.1399C127.44 77.6526 129.558 78.9262 132.843 78.9262C136.128 78.9262 139.313 78.2378 142.382 76.8782C145.467 75.5186 148.002 74.1762 150.003 72.851C150.636 72.4379 151.287 72.0421 151.921 71.6807C152.554 71.3021 153.121 71.13 153.605 71.13C154.172 71.13 154.605 71.3537 154.922 71.8184C155.239 72.2658 155.406 72.8338 155.406 73.4878C155.406 74.9678 154.805 76.7921 153.605 78.9434C152.404 81.0947 150.62 83.1943 148.268 85.2596C145.9 87.3248 142.999 89.063 139.564 90.457C136.128 91.8683 132.126 92.5567 127.557 92.5567H127.54Z" fill="black"/>
<path d="M173.266 92.5565C170.381 92.5565 168.463 91.7993 167.496 90.2676C166.529 88.7359 166.095 86.4813 166.179 83.5211C166.262 80.7159 166.479 77.3599 166.846 73.4876C167.212 69.5981 167.629 65.7602 168.113 61.9567L172.315 29.3606C172.716 26.2283 172.632 23.5779 172.082 21.4267C171.515 19.2754 170.898 17.3651 170.214 15.6612C169.53 13.9746 169.197 12.3397 169.197 10.7735C169.197 9.5344 169.964 8.43295 171.482 7.48639C172.999 6.53982 174.867 5.76536 177.068 5.19743C179.269 4.62949 181.37 4.33691 183.372 4.33691C186.407 4.33691 188.591 5.28348 189.909 7.19381C191.226 9.10415 191.893 11.2382 191.893 13.6304C191.893 14.8696 191.81 16.8143 191.659 19.4475C191.493 22.0979 191.176 25.1097 190.692 28.5001L186.857 57.0002C186.056 62.9549 185.439 69.0129 184.989 75.2086C184.556 81.4043 184.122 87.1869 183.722 92.5565H173.283H173.266Z" fill="black"/>
<path d="M204.133 92.5564C202.615 92.5564 201.348 91.4205 200.348 89.1488C199.347 86.877 198.847 84.3299 198.847 81.5246C198.847 79.6315 198.913 77.8417 199.03 76.1895C199.147 74.5373 199.364 72.3 199.697 69.4947L204.016 29.7219H216.256C218.258 29.7219 219.658 30.634 220.459 32.4411C221.259 34.2654 221.659 36.3306 221.659 38.6368C221.659 39.7898 221.576 41.0118 221.426 42.2853C221.259 43.5761 221.026 45.5208 220.709 48.1712L218.424 68.376C218.024 72.4204 217.624 75.8969 217.224 78.7882C216.823 81.6795 216.49 84.2266 216.206 86.4123C215.923 88.598 215.673 90.6461 215.423 92.5392H204.133V92.5564ZM214.706 25.643C211.904 25.643 209.486 24.6448 207.435 22.6657C205.4 20.6865 204.366 18.1222 204.366 14.9899C204.366 11.1864 205.55 8.2435 207.902 6.12664C210.27 4.02699 213.005 2.95996 216.123 2.95996C219.008 2.95996 221.426 3.82047 223.394 5.5587C225.362 7.29694 226.329 9.9301 226.329 13.4926C226.329 17.0551 225.161 19.8604 222.843 22.1666C220.526 24.4727 217.807 25.643 214.672 25.643H214.706Z" fill="black"/>
<path d="M247.141 92.5567C240.971 92.5567 235.918 90.5603 231.949 86.5503C227.98 82.5403 226.012 77.0331 226.012 70.0113C226.012 64.1426 226.896 58.773 228.647 53.9025C230.415 49.032 232.866 44.7811 236.034 41.1325C239.203 37.5012 242.838 34.6959 246.957 32.6995C251.076 30.7204 255.462 29.7222 260.098 29.7222C265.218 29.7222 269.537 30.9441 273.072 33.3707C276.591 35.8146 278.358 39.3427 278.358 43.9722C278.358 48.6018 276.741 52.3536 273.489 55.744C270.254 59.1344 265.751 62.043 259.981 64.4868C254.211 66.9307 247.541 68.9615 239.937 70.6137L238.369 61.9397C242.205 61.4406 245.757 60.5113 248.992 59.1516C252.227 57.792 254.895 55.985 256.98 53.7648C259.064 51.5275 260.181 48.9804 260.348 46.0891C260.515 44.1099 260.231 42.4405 259.514 41.0637C258.797 39.7041 257.713 39.0157 256.279 39.0157C254.512 39.0157 252.744 40.2204 250.943 42.6126C249.142 45.0048 247.641 48.1887 246.44 52.1471C245.24 56.1054 244.639 60.408 244.639 65.0375C244.639 69.2541 245.123 72.61 246.073 75.1399C247.041 77.6526 249.159 78.9262 252.444 78.9262C255.729 78.9262 258.914 78.2378 261.982 76.8782C265.067 75.5186 267.602 74.1762 269.603 72.851C270.237 72.4379 270.887 72.0421 271.521 71.6807C272.155 71.3021 272.722 71.13 273.205 71.13C273.772 71.13 274.206 71.3537 274.523 71.8184C274.84 72.2658 275.006 72.8338 275.006 73.4878C275.006 74.9678 274.406 76.7921 273.205 78.9434C272.005 81.0947 270.22 83.1943 267.869 85.2596C265.501 87.3248 262.599 89.063 259.164 90.457C255.729 91.8683 251.727 92.5567 247.157 92.5567H247.141Z" fill="black"/>
<path d="M305.384 174.598C299.214 174.598 294.161 172.601 290.192 168.591C286.223 164.581 284.256 159.074 284.256 152.052C284.256 146.184 285.139 140.814 286.89 135.944C288.658 131.073 291.109 126.822 294.278 123.174C297.446 119.542 301.082 116.737 305.201 114.741C309.32 112.761 313.705 111.763 318.341 111.763C323.461 111.763 327.78 112.985 331.315 115.412C334.834 117.856 336.602 121.384 336.602 126.013C336.602 130.643 334.984 134.395 331.732 137.785C328.497 141.175 323.995 144.084 318.225 146.528C312.455 148.972 305.784 151.002 298.18 152.655L296.613 143.981C300.448 143.482 304 142.552 307.235 141.193C310.47 139.833 313.139 138.026 315.223 135.806C317.308 133.569 318.425 131.021 318.592 128.13C318.758 126.151 318.475 124.482 317.758 123.105C317.041 121.745 315.957 121.057 314.523 121.057C312.755 121.057 310.987 122.261 309.186 124.654C307.385 127.046 305.884 130.23 304.684 134.188C303.483 138.146 302.883 142.449 302.883 147.079C302.883 151.295 303.366 154.651 304.317 157.181C305.284 159.694 307.402 160.967 310.687 160.967C313.972 160.967 317.157 160.279 320.226 158.919C323.311 157.56 325.846 156.217 327.847 154.892C328.48 154.479 329.131 154.083 329.765 153.722C330.398 153.343 330.965 153.171 331.449 153.171C332.016 153.171 332.449 153.395 332.766 153.859C333.083 154.307 333.25 154.875 333.25 155.529C333.25 157.009 332.649 158.833 331.449 160.984C330.248 163.136 328.464 165.235 326.112 167.301C323.744 169.366 320.843 171.104 317.408 172.498C313.972 173.909 309.97 174.598 305.401 174.598H305.384Z" fill="black"/>
<path d="M58.468 174.477C51.7475 174.477 46.4946 173.461 42.7425 171.448C38.9737 169.417 37.106 166.422 37.106 162.464C37.106 159.745 37.4728 157.611 38.1899 156.079C38.907 154.547 39.7574 153.79 40.708 153.79C41.425 153.79 42.1421 153.996 42.8759 154.41C43.6096 154.823 44.5935 155.528 45.8775 156.509C47.245 157.507 48.8792 158.574 50.797 159.727C52.7147 160.881 54.6992 161.879 56.7336 162.705C58.7681 163.531 60.6025 163.944 62.2034 163.944C63.8877 163.944 65.3218 163.531 66.5225 162.705C67.7231 161.879 68.3235 160.64 68.3235 158.987C68.3235 157.834 68.0066 156.802 67.3563 155.89C66.7226 154.977 65.4385 153.945 63.5208 152.792L54.399 147.216C50.9637 145.064 48.2789 142.655 46.3612 139.97C44.4434 137.285 43.4762 134.136 43.4762 130.487C43.4762 124.877 45.4773 120.35 49.4796 116.926C53.4818 113.501 59.6519 111.78 67.9733 111.78C73.0928 111.78 77.0617 112.279 79.8633 113.26C82.6649 114.258 84.0657 116.065 84.0657 118.716C84.0657 121.366 83.6488 123.672 82.7983 125.651C81.9645 127.63 80.8639 128.629 79.4964 128.629C79.0128 128.629 78.4959 128.508 77.9289 128.25C77.3619 128.009 76.8116 127.751 76.2446 127.51C75.3608 127.097 74.2101 126.443 72.7593 125.531C71.3252 124.619 69.8243 123.793 68.2568 123.052C66.6892 122.312 65.1884 121.934 63.7543 121.934C62.2367 121.934 61.0861 122.364 60.3357 123.242C59.5686 124.102 59.2017 125.083 59.2017 126.15C59.2017 127.389 59.5352 128.456 60.2189 129.369C60.9027 130.281 62.3535 131.193 64.6047 132.088L72.6426 135.427C77.045 137.251 80.2635 139.557 82.3147 142.362C84.3492 145.168 85.3831 148.524 85.3831 152.396C85.3831 157.112 84.149 161.104 81.6643 164.409C79.1796 167.713 75.8944 170.209 71.8255 171.912C67.7398 173.599 63.304 174.459 58.5013 174.459L58.468 174.477Z" fill="black"/>
<path d="M102.776 174.236C99.6578 174.236 96.9396 173.307 94.6049 171.448C92.287 169.59 91.1196 166.63 91.1196 162.585C91.1196 161.346 91.1363 160.193 91.1863 159.109C91.2197 158.042 91.3531 156.716 91.5532 155.15C91.7533 153.584 92.0201 151.433 92.337 148.714L96.9062 111.781H107.712C109.08 111.781 110.38 112.589 111.614 114.19C112.848 115.808 113.482 117.77 113.482 120.076C113.482 121.814 113.365 124.086 113.115 126.891C112.882 129.696 112.515 132.794 112.031 136.185L110.464 146.958C110.147 149.264 109.897 151.106 109.747 152.465C109.58 153.825 109.513 155.081 109.513 156.252C109.513 157.078 109.613 157.835 109.813 158.541C110.014 159.246 110.48 159.591 111.198 159.591C112.165 159.591 113.415 158.764 114.983 157.112C116.551 155.46 118.185 153.274 119.902 150.538C121.62 147.819 123.238 144.859 124.772 141.675C126.289 138.491 127.54 135.376 128.491 132.312C129.458 129.266 129.925 126.581 129.925 124.258C129.925 122.365 129.708 120.764 129.258 119.491C128.824 118.217 128.641 117.15 128.724 116.324C128.724 115.584 129.358 114.913 130.642 114.345C131.926 113.777 133.46 113.295 135.261 112.916C137.062 112.538 138.796 112.262 140.481 112.056C142.165 111.849 143.399 111.746 144.199 111.746C145.884 111.746 147.218 112.572 148.218 114.224C149.219 115.877 149.552 118.234 149.236 121.281L143.599 173.823H133.76C132.726 173.823 131.759 173.393 130.875 172.515C129.991 171.655 129.274 170.588 128.707 169.349C128.14 168.11 127.874 166.905 127.874 165.752C127.874 163.859 128.19 161.793 128.841 159.556C129.474 157.319 130.342 154.479 131.426 151.003C132.51 147.526 133.76 143.069 135.211 137.613V139.713C132.093 148.146 128.774 154.875 125.239 159.918C121.72 164.96 118.068 168.591 114.316 170.829C110.547 173.066 106.712 174.168 102.793 174.168L102.776 174.236Z" fill="black"/>
<path d="M158.641 174.357C157.607 174.357 156.773 174.168 156.173 173.806C155.573 173.428 155.206 172.464 155.089 170.898C154.972 169.332 155.106 166.802 155.506 163.342L161.142 111.798H172.916C175.084 111.798 176.618 112.71 177.535 114.517C178.452 116.341 178.919 118.407 178.919 120.713C178.919 121.78 178.502 123.466 177.652 125.738C176.818 128.01 175.884 130.402 174.883 132.932C173.883 135.445 173.099 137.665 172.549 139.558L169.664 149.712L175.667 148.972L173.633 168.678C173.549 169.831 172.832 170.777 171.465 171.535C170.097 172.275 168.497 172.86 166.662 173.273C164.828 173.686 163.144 173.978 161.626 174.133C160.108 174.305 159.108 174.374 158.624 174.374L158.641 174.357ZM173.649 168.66L169.08 150.934C172.049 143 175.05 136.133 178.085 130.299C181.12 124.482 184.255 119.956 187.457 116.737C190.659 113.519 193.894 111.901 197.179 111.901C199.264 111.901 200.998 112.486 202.399 113.639C203.8 114.792 204.5 116.823 204.5 119.715C204.5 121.608 204.267 123.518 203.783 125.411C203.299 127.304 202.616 128.888 201.749 130.127C200.865 131.366 199.831 131.985 198.63 131.985C197.596 131.985 196.329 131.59 194.845 130.815C193.36 130.023 191.71 129.645 189.859 129.645C188.658 129.645 187.274 130.626 185.723 132.553C184.155 134.498 182.554 137.2 180.92 140.677C179.286 144.153 177.818 148.249 176.534 152.999C175.25 157.749 174.3 162.981 173.649 168.678V168.66Z" fill="black"/>
<path d="M356.201 92.5567C350.031 92.5567 344.978 90.5603 341.009 86.5503C337.041 82.5403 335.073 77.0331 335.073 70.0113C335.073 64.1426 335.957 58.773 337.708 53.9025C339.475 49.032 341.927 44.7811 345.095 41.1325C348.263 37.5012 351.899 34.6959 356.018 32.6995C360.137 30.7204 364.523 29.7222 369.159 29.7222C374.278 29.7222 378.597 30.9441 382.132 33.3707C385.651 35.8146 387.419 39.3427 387.419 43.9722C387.419 48.6018 385.801 52.3536 382.549 55.744C379.314 59.1344 374.812 62.043 369.042 64.4868C363.272 66.9307 356.602 68.9615 348.997 70.6137L347.43 61.9397C351.265 61.4406 354.817 60.5113 358.052 59.1516C361.287 57.792 363.956 55.985 366.04 53.7648C368.125 51.5275 369.242 48.9804 369.409 46.0891C369.575 44.1099 369.292 42.4405 368.575 41.0637C367.858 39.7041 366.774 39.0157 365.34 39.0157C363.572 39.0157 361.804 40.2204 360.003 42.6126C358.202 45.0048 356.702 48.1887 355.501 52.1471C354.3 56.1054 353.7 60.408 353.7 65.0375C353.7 69.2541 354.183 72.61 355.134 75.1399C356.101 77.6526 358.219 78.9262 361.504 78.9262C364.789 78.9262 367.975 78.2378 371.043 76.8782C374.128 75.5186 376.663 74.1762 378.664 72.851C379.298 72.4379 379.948 72.0421 380.582 71.6807C381.215 71.3021 381.782 71.13 382.266 71.13C382.833 71.13 383.266 71.3537 383.583 71.8184C383.9 72.2658 384.067 72.8338 384.067 73.4878C384.067 74.9678 383.467 76.7921 382.266 78.9434C381.065 81.0947 379.281 83.1943 376.93 85.2596C374.562 87.3248 371.66 89.063 368.225 90.457C364.789 91.8683 360.787 92.5567 356.218 92.5567H356.201Z" fill="black"/>
<path d="M359.498 200C354.528 200 350.61 199.259 347.725 197.762C344.84 196.265 342.805 194.251 341.604 191.687C340.404 189.123 339.803 186.197 339.803 182.893C339.803 181.24 340.12 179.984 340.771 179.106C341.404 178.246 342.005 177.798 342.572 177.798C343.205 177.798 343.772 178.074 344.256 178.607C344.74 179.141 345.457 179.743 346.424 180.397C347.941 181.395 349.742 182.462 351.827 183.615C353.911 184.768 356.113 185.767 358.431 186.593C360.749 187.419 362.95 187.832 365.034 187.832C366.235 187.832 367.552 187.333 369.003 186.352C370.454 185.371 371.938 183.374 373.506 180.397C375.073 177.42 376.607 172.962 378.125 167.008L385.212 138.748H385.813C383.011 146.854 379.809 153.515 376.207 158.764C372.605 164.013 368.736 167.868 364.617 170.346C360.498 172.825 356.313 174.064 352.077 174.064C348.708 174.064 346.24 173.117 344.64 171.207C343.039 169.314 342.238 166.663 342.238 163.273C342.238 161.621 342.338 159.796 342.538 157.817C342.738 155.838 343.072 152.74 343.556 148.524L347.991 111.728H358.797C360.165 111.728 361.466 112.537 362.7 114.138C363.934 115.755 364.567 117.717 364.567 120.024C364.567 121.177 364.501 122.588 364.384 124.24C364.267 125.892 364.1 127.734 363.9 129.747C363.7 131.778 363.433 133.895 363.117 136.132L361.549 146.906C361.232 149.212 360.982 151.054 360.832 152.413C360.665 153.773 360.598 155.029 360.598 156.199C360.598 157.026 360.699 157.783 360.899 158.488C361.099 159.194 361.566 159.538 362.283 159.538C363.25 159.538 364.484 158.712 366.002 157.06C367.519 155.408 369.12 153.257 370.804 150.623C372.489 147.973 374.073 145.133 375.54 142.07C377.024 139.006 378.242 136.012 379.209 133.086C380.176 130.16 380.643 127.648 380.643 125.582C380.643 124.171 380.61 122.674 380.526 121.056C380.443 119.438 380.41 118.234 380.41 117.408C380.41 116.341 381.21 115.377 382.811 114.551C384.412 113.725 386.38 113.036 388.698 112.503C391.016 111.969 393.217 111.694 395.301 111.694C396.986 111.694 398.236 112.52 399.087 114.172C399.921 115.824 400.187 118.182 399.871 121.228C399.787 122.64 399.637 124.412 399.387 126.563C399.153 128.715 398.87 130.987 398.553 133.379L394.468 168.815C393.834 174.511 392.35 179.347 390.032 183.306C387.714 187.264 384.895 190.465 381.56 192.909C378.242 195.353 374.656 197.125 370.821 198.244C366.985 199.363 363.217 199.913 359.531 199.913L359.498 200Z" fill="black"/>
<defs>
<linearGradient id="paint0_linear_371_2464" x1="210.71" y1="96.3773" x2="346.395" y2="96.3773" gradientUnits="userSpaceOnUse">
<stop stop-color="#5184B1"/>
<stop offset="1" stop-color="#E77853"/>
</linearGradient>
</defs>
</svg>
